<svg width="509" height="362" viewBox="0 0 509 362" fill="none" xmlns="http://www.w3.org/2000/svg">
<path opacity="0.1" d="M509 232.501C509.011 242.284 507.987 252.04 505.945 261.606C505.259 264.81 504.462 267.95 503.555 271.026C502.431 274.861 501.146 278.58 499.7 282.181C498.965 284.015 498.189 285.817 497.371 287.588C497.399 297.568 495.617 307.471 492.111 316.814C485.91 333.25 474.618 346.658 460.486 354.491C451.681 359.408 441.766 361.993 431.683 362H96.6254C78.7169 362 62.1178 355.629 48.5093 344.772C44.5305 341.586 40.8334 338.062 37.4591 334.24C32.7652 328.909 28.69 323.063 25.3113 316.814C17.472 302.389 12.956 285.408 12.956 267.233C4.76666 250.637 0 230.741 0 209.331C0 182.345 7.58863 157.734 20.0563 139.097C22.6278 135.244 25.4745 131.582 28.574 128.141C31.5682 124.81 34.8257 121.726 38.3148 118.919C41.0504 116.719 43.9387 114.715 46.9579 112.924C48.2068 112.189 49.4601 111.497 50.7349 110.853C51.8527 110.276 52.985 109.738 54.1316 109.239C55.5059 108.634 56.8974 108.079 58.3062 107.574C59.7151 107.069 61.1052 106.627 62.4765 106.246C64.5034 105.68 66.559 105.222 68.6347 104.875C70.3633 104.577 72.092 104.356 73.8206 104.213C75.1948 104.101 76.5806 104.036 77.9779 104.019C78.2329 104.019 78.4792 104.019 78.7342 104.019C80.2726 104.019 81.8025 104.092 83.3193 104.209C83.4792 103.837 83.6521 103.465 83.812 103.093C84.417 101.761 85.0436 100.437 85.6746 99.1311C85.6759 99.1197 85.6759 99.108 85.6746 99.0965C85.7826 98.8716 85.8907 98.664 86.003 98.4261C86.513 97.3621 87.0445 96.3067 87.589 95.26C87.8397 94.7756 88.086 94.2955 88.341 93.8154C88.3971 93.7029 88.4533 93.5948 88.5182 93.4823C88.7774 92.9849 89.0411 92.4918 89.309 91.9988C90.6429 89.5391 92.0301 87.117 93.4706 84.7323C93.596 84.529 93.7126 84.3257 93.838 84.1268C94.0627 83.7591 94.2701 83.3915 94.5208 83.0281C95.1171 82.0593 95.7308 81.0947 96.3488 80.1388C96.7809 79.4641 97.2131 78.7894 97.6798 78.1233C98.8034 76.4364 99.9558 74.7712 101.137 73.1276C102.318 71.484 103.546 69.8404 104.819 68.1968C104.992 67.9718 105.165 67.7642 105.346 67.5263L107.192 65.2037L107.447 64.8879L108.116 64.0704C109.106 62.8637 110.122 61.6699 111.141 60.4891C116.277 54.5645 121.807 48.9939 127.693 43.8152C127.922 43.6032 128.155 43.3826 128.384 43.201C129.482 42.2451 130.597 41.3022 131.712 40.3766C137.789 35.3335 144.201 30.7092 150.904 26.5357C151.362 26.2415 151.829 25.9561 152.3 25.6706C158.221 22.0498 164.353 18.7856 170.662 15.8955C174.119 14.3038 177.613 12.8303 181.142 11.475C183.484 10.584 185.835 9.74493 188.216 8.94908C191.898 7.73223 195.626 6.62929 199.4 5.64024C210.47 2.76242 221.795 0.977639 233.212 0.311494C236.669 0.103881 240.165 7.40759e-05 243.7 7.40759e-05C260.823 -0.0156583 277.856 2.47465 294.258 7.39198C294.564 7.97451 295.169 8.33801 295.827 8.33489H297.283C297.914 8.53385 298.541 8.74146 299.172 8.94908C302.695 10.1198 306.168 11.4015 309.591 12.7943L310.455 13.1489C326.801 19.8795 342.035 29.0461 355.641 40.3376C356.653 41.171 357.649 42.0173 358.632 42.8766C359.825 41.9913 361.037 41.145 362.271 40.3376C366.961 37.2332 372.026 34.7364 377.344 32.9068C388.234 29.1553 399.972 28.6237 411.156 31.3757C425.525 34.9008 438.533 43.6465 449.039 56.0816C453.37 61.2492 457.176 66.8363 460.4 72.7599C460.638 73.1925 460.875 73.625 461.104 74.0575C463.942 79.4201 466.361 84.9948 468.339 90.7315C468.412 90.9391 468.485 91.164 468.55 91.3543C470.403 96.8039 471.891 102.371 473.001 108.02C473.053 108.305 473.114 108.595 473.166 108.885C474.214 114.394 474.924 119.962 475.292 125.559C475.292 125.762 475.292 125.965 475.326 126.168C475.508 129.069 475.6 132.002 475.603 134.966C475.603 137.619 475.53 140.246 475.383 142.847C475.383 143.137 475.348 143.431 475.326 143.712C475.288 144.469 475.231 145.226 475.175 145.978C478.509 149.092 481.598 152.459 484.415 156.048C485.674 157.642 486.892 159.293 488.071 161C491.698 166.268 494.851 171.848 497.492 177.674C504.799 193.656 509 212.419 509 232.501Z" fill="#3B50E1"/>
<path opacity="0.1" d="M464 345.188C464 351.649 444.149 357.545 411.529 362H105.467C72.8508 357.545 53 351.649 53 345.188C53 340.267 64.5162 335.672 84.4275 331.791L84.9895 331.682C90.6093 330.599 96.8904 329.572 103.755 328.611L104.278 328.537C109.725 327.78 115.519 327.065 121.661 326.392L122.24 326.331C124.609 326.07 127.027 325.817 129.494 325.574L130.445 325.482C148.406 323.742 168.824 322.332 190.965 321.388H190.991C194.092 321.257 197.226 321.136 200.394 321.022C203.915 320.892 207.48 320.776 211.089 320.674C213.842 320.592 216.631 320.522 219.427 320.457H219.492C232.111 320.157 245.149 320 258.481 320C291.447 320 322.606 320.953 350.217 322.645H350.295C354.54 322.906 358.707 323.181 362.771 323.476L366.229 323.733C370.814 324.081 375.281 324.45 379.63 324.838C430.783 329.42 464 336.83 464 345.188Z" fill="#3B50E1"/>
<path opacity="0.03" fill-rule="evenodd" clip-rule="evenodd" d="M137 45.8125V59.1875C137.001 59.6678 136.813 60.1288 136.478 60.4689C136.142 60.8089 135.687 61 135.212 61H111C116.183 54.9596 121.763 49.28 127.702 44H135.216C135.691 44.0012 136.145 44.1928 136.479 44.5327C136.814 44.8726 137.001 45.3329 137 45.8125V45.8125Z" stroke="white"/>
<path d="M431 45.1412V241.82C431 244.681 428.678 247 425.813 247H74.1869C71.3223 247 69 244.681 69 241.82V104.371C70.729 104.073 72.458 103.853 74.1869 103.711C75.5615 103.598 76.9475 103.534 78.3451 103.516C78.6001 103.516 78.8465 103.516 79.1015 103.516C80.6403 103.516 82.1705 103.59 83.6876 103.706C83.8476 103.335 84.0205 102.964 84.1804 102.593C84.7856 101.263 85.4123 99.9421 86.0434 98.6384C86.0447 98.6269 86.0447 98.6154 86.0434 98.6039C86.1514 98.3794 86.2595 98.1722 86.3719 97.9348C86.8819 96.8729 87.4136 95.8196 87.9582 94.7749C88.2089 94.2915 88.4553 93.8123 88.7103 93.3332C88.7665 93.2209 88.8227 93.113 88.8875 93.0008C89.1469 92.5043 89.4106 92.0122 89.6786 91.5201C91.0127 89.0654 92.4002 86.648 93.8411 84.268C93.9664 84.0651 94.0831 83.8623 94.2085 83.6637C94.4332 83.2968 94.6407 82.9298 94.8914 82.5672C95.4879 81.6003 96.1017 80.6377 96.7198 79.6837C97.152 79.0103 97.5843 78.3368 98.0511 77.6721C99.175 75.9885 100.328 74.3266 101.509 72.6863C102.691 71.0459 103.918 69.4055 105.192 67.7652C105.365 67.5407 105.538 67.3335 105.719 67.0961L107.565 64.778L107.82 64.4629L108.49 63.647C109.48 62.4427 110.495 61.2512 111.516 60.0728C116.652 54.1599 122.183 48.6003 128.07 43.4318C128.3 43.2203 128.533 43.0001 128.762 42.8188C129.86 41.8648 130.975 40.9238 132.09 40H356.079C357.091 40.8317 358.088 41.6763 359.07 42.5339C360.263 41.6504 361.476 40.8058 362.71 40H425.817C428.665 40.0023 430.979 42.2972 431 45.1412Z" fill="white"/>
<path d="M410 78V83H95C95.5958 82.0123 96.209 81.0291 96.8307 80.0547C97.2625 79.3668 97.6943 78.679 98.1563 78H410Z" fill="#3F3D56"/>
<rect x="342" y="54" width="187" height="5" transform="rotate(90 342 54)" fill="#3F3D56"/>
<rect x="252" y="54" width="187" height="5" transform="rotate(90 252 54)" fill="#3F3D56"/>
<rect x="162" y="54" width="187" height="5" transform="rotate(90 162 54)" fill="#3F3D56"/>
<path d="M106 93V112H86V98.5562C86 98.5562 86 98.5349 86 98.5222C86.1084 98.3009 86.2168 98.0967 86.3296 97.8627C86.8456 96.8162 87.3747 95.7781 87.9254 94.7485C88.1726 94.2721 88.4198 93.7998 88.6756 93.3276C88.732 93.217 88.7927 93.1106 88.8534 93L106 93Z" fill="url(#paint0_linear)"/>
<path d="M105 94.0132V113H86V98.6939C86.5077 97.6107 87.0283 96.5363 87.5702 95.4707C87.8134 94.9775 88.0566 94.4888 88.3083 94L105 94.0132Z" fill="#C793FF"/>
<rect x="166" y="88" width="20" height="19" fill="url(#paint1_linear)"/>
<rect x="167" y="88" width="19" height="19" fill="#C793FF"/>
<rect x="256" y="125" width="20" height="19" fill="url(#paint2_linear)"/>
<rect x="257" y="125" width="19" height="19" fill="#C793FF"/>
<rect x="348" y="138" width="20" height="19" fill="url(#paint3_linear)"/>
<rect x="349" y="138" width="19" height="19" fill="#7CFCFF"/>
<rect x="373" y="150" width="20" height="19" fill="url(#paint4_linear)"/>
<rect x="373" y="151" width="19" height="19" fill="#7CFCFF"/>
<rect x="404" y="117" width="20" height="19" fill="url(#paint5_linear)"/>
<rect x="404" y="117" width="19" height="19" fill="#C793FF"/>
<rect x="398" y="144" width="20" height="19" fill="url(#paint6_linear)"/>
<rect x="398" y="144" width="19" height="19" fill="#C793FF"/>
<rect x="194" y="88" width="20" height="19" fill="url(#paint7_linear)"/>
<rect x="194" y="88" width="19" height="19" fill="#C793FF"/>
<rect x="100" y="134" width="20" height="19" fill="url(#paint8_linear)"/>
<rect x="101" y="135" width="19" height="19" fill="#FDCE3E"/>
<rect x="181" y="115" width="20" height="19" fill="url(#paint9_linear)"/>
<rect x="181" y="116" width="19" height="19" fill="#FDCE3E"/>
<rect x="285" y="104" width="20" height="19" fill="url(#paint10_linear)"/>
<rect x="285" y="104" width="19" height="19" fill="#FDCE3E"/>
<rect x="390" y="90" width="20" height="19" fill="url(#paint11_linear)"/>
<rect x="390" y="91" width="19" height="19" fill="#FDCE3E"/>
<rect x="311" y="88" width="20" height="19" fill="url(#paint12_linear)"/>
<rect x="311" y="88" width="19" height="19" fill="#FDCE3E"/>
<rect x="310" y="125" width="20" height="19" fill="url(#paint13_linear)"/>
<rect x="310" y="125" width="19" height="19" fill="#FDCE3E"/>
<rect x="220" y="97" width="20" height="19" fill="url(#paint14_linear)"/>
<rect x="221" y="97" width="19" height="19" fill="#FDCE3E"/>
<rect x="114" y="103" width="20" height="19" fill="url(#paint15_linear)"/>
<rect x="115" y="103" width="19" height="19" fill="#FB9166"/>
<rect x="124" y="125" width="20" height="19" fill="url(#paint16_linear)"/>
<rect x="125" y="125" width="19" height="19" fill="#FB9166"/>
<rect x="207" y="128" width="20" height="19" fill="url(#paint17_linear)"/>
<rect x="207" y="129" width="19" height="19" fill="#FB9166"/>
<rect x="353" y="90" width="20" height="19" fill="url(#paint18_linear)"/>
<rect x="353" y="91" width="19" height="19" fill="#FB9166"/>
<rect x="371" y="117" width="20" height="19" fill="url(#paint19_linear)"/>
<rect x="371" y="117" width="19" height="19" fill="#FB9166"/>
<rect x="258" y="88" width="20" height="19" fill="url(#paint20_linear)"/>
<rect x="259" y="88" width="19" height="19" fill="#FB9166"/>
<rect x="282" y="144" width="20" height="19" fill="url(#paint21_linear)"/>
<rect x="283" y="144" width="19" height="19" fill="#FB9166"/>
<path fill-rule="evenodd" clip-rule="evenodd" d="M395.458 145.552C396.29 146.164 396.839 147.087 396.978 148.11C397.012 148.399 397.006 148.691 396.961 148.979C396.871 149.455 396.726 149.919 396.529 150.362C396.053 151.54 395.464 152.668 394.771 153.733C394.895 153.896 395.005 154.069 395.099 154.251C395.291 154.607 395.423 154.993 395.488 155.392C395.533 155.776 395.533 156.163 395.488 156.546C395.434 157.099 395.31 157.65 395.185 158.204C395.04 158.845 394.894 159.49 394.857 160.142C394.84 160.43 394.84 160.718 394.857 161.006C394.914 161.729 395.072 162.444 395.23 163.161C395.314 163.541 395.398 163.922 395.466 164.304C395.681 165.436 395.769 166.588 395.73 167.739V167.83C395.732 167.843 395.732 167.856 395.73 167.869C395.618 172.074 394.127 176.27 392.62 180.259C392.254 181.092 392.025 181.977 391.941 182.883C391.935 183.069 391.944 183.255 391.967 183.44C392.043 184.216 392.3 184.966 392.557 185.718C392.781 186.374 393.005 187.032 393.112 187.71C393.186 188.196 393.21 188.688 393.181 189.179V189.218C393.083 190.604 392.613 191.963 392.14 193.329C391.615 194.847 391.087 196.373 391.064 197.952V198.475C391.191 199.557 391.264 200.645 391.28 201.734V201.786C391.267 202.115 391.22 202.443 391.138 202.762C390.957 203.457 390.61 204.088 390.263 204.717C390.088 205.035 389.913 205.353 389.76 205.679C389.343 206.567 389.08 207.52 388.819 208.471C388.571 209.372 388.323 210.271 387.945 211.112C387.114 212.84 385.894 214.351 384.381 215.529C384.252 215.654 384.1 215.775 383.949 215.896L383.949 215.896C383.859 216.19 383.785 216.488 383.729 216.791C383.623 217.443 383.578 218.105 383.595 218.766V218.822C383.594 218.833 383.593 218.845 383.593 218.857C383.594 218.865 383.594 218.874 383.595 218.882C383.613 219.794 383.712 220.728 383.811 221.664C383.931 222.795 384.051 223.928 384.027 225.023V225.058C384.021 225.385 383.998 225.711 383.958 226.035C383.426 225.827 382.886 225.633 382.351 225.443C382.39 225.693 382.39 225.901 382.39 226.125V226.99C382.392 227.019 382.392 227.047 382.39 227.076V227.128C382.392 227.138 382.392 227.148 382.39 227.158C382.366 231.512 381.116 235.77 378.782 239.445C378.533 239.832 378.272 240.213 378.01 240.594C377.353 241.553 376.695 242.511 376.225 243.572C375.793 244.63 375.458 245.725 375.223 246.844C375.141 247.202 375.054 247.557 374.964 247.915C374.73 248.931 374.488 249.938 374.242 250.941C373.934 252.233 373.623 253.521 373.311 254.81C373.002 256.09 372.692 257.372 372.384 258.663C372.357 258.783 372.33 258.903 372.302 259.023C371.757 261.396 371.204 263.808 371.088 266.235C371.067 266.564 371.067 266.892 371.067 267.225V267.367V267.402C371.067 267.562 371.074 267.721 371.082 267.879C371.09 268.038 371.097 268.197 371.097 268.357C371.124 268.744 371.161 269.14 371.198 269.538C371.27 270.31 371.343 271.094 371.343 271.849C371.345 271.891 371.345 271.933 371.343 271.974C371.381 273.056 371.06 274.119 370.432 274.999C370.09 275.344 369.799 275.735 369.568 276.162C369.473 276.44 369.438 276.734 369.464 277.026V277.061C369.479 277.203 369.503 277.356 369.526 277.506C369.536 277.57 369.546 277.634 369.555 277.696C369.922 279.896 370.268 282.117 370.527 284.347C370.723 285.972 370.867 287.594 370.959 289.214C371.274 289.646 371.585 290.078 371.875 290.51C373.382 292.813 374.514 295.341 375.227 297.999C375.612 299.309 375.923 300.636 376.229 301.962C377.305 306.875 378.071 311.851 378.523 316.859C378.782 319.604 378.968 322.352 379.098 325.101C379.103 325.201 379.109 325.302 379.116 325.403C379.129 325.579 379.141 325.755 379.141 325.931C380.303 326.985 381.304 328.205 382.109 329.552C383.327 331.804 383.483 334.462 383.612 337.029V337.314C383.621 337.435 383.621 337.556 383.612 337.677C383.597 337.876 383.551 338.072 383.474 338.256C383.179 338.753 382.721 339.132 382.178 339.328C381.949 339.44 381.716 339.553 381.478 339.661V339.725C381.625 340.266 381.746 340.819 381.863 341.376C382.753 340.378 384.342 338.779 384.614 339.946C384.692 340.313 384.774 340.681 384.856 341.052V341.078V341.108C385.087 342.2 385.281 343.299 385.44 344.406C385.513 344.911 385.582 345.417 385.643 345.927L385.72 346.623C385.751 346.709 385.751 346.796 385.751 346.878C385.755 346.909 385.759 346.94 385.763 346.972C385.778 347.082 385.794 347.196 385.794 347.31V347.505L385.846 348.092C385.888 348.575 385.918 349.062 385.948 349.546L385.949 349.575L385.975 350.08V350.357V350.582C386.006 350.992 386.006 351.398 386.006 351.809V352.077V352.116C386.008 352.158 386.008 352.199 386.006 352.241C386.008 352.268 386.008 352.296 386.006 352.323C386.007 352.336 386.007 352.349 386.006 352.362C386 352.387 385.991 352.412 385.98 352.436C385.963 352.473 385.945 352.509 385.923 352.544C385.685 352.81 385.348 352.967 384.99 352.976C383.09 353.313 381.18 353.572 379.249 353.745C377.259 353.915 375.256 354 373.24 354H372.047H372.013C371.227 353.983 370.479 353.957 369.654 353.918C368.829 353.879 368.004 353.827 367.179 353.775C366.017 353.693 364.85 353.607 363.688 353.516L360.435 353.265L360.428 353.265C357.082 353.006 353.732 352.746 350.456 352.025C349.039 351.71 347.527 351.269 346.447 350.253C345.854 349.686 345.449 348.952 345.285 348.148C345.227 347.852 345.217 347.549 345.255 347.25C345.268 347.134 345.293 347.019 345.328 346.908C345.33 346.875 345.33 346.842 345.328 346.809C345.337 346.769 345.35 346.73 345.367 346.692C345.376 346.656 345.389 346.621 345.406 346.588V346.554C345.429 346.471 345.462 346.391 345.505 346.316C345.513 346.289 345.525 346.262 345.54 346.238C346.37 344.843 348.166 344.611 349.817 344.398C349.996 344.375 350.174 344.352 350.348 344.328C352.104 344.08 353.805 343.538 355.381 342.725L355.718 342.539C355.79 342.497 355.867 342.454 355.946 342.41C356.077 342.336 356.214 342.259 356.344 342.18L356.426 342.133C356.391 342.123 356.357 342.115 356.323 342.106C356.264 342.092 356.207 342.078 356.15 342.059C355.256 341.757 354.469 341.228 353.681 340.699C353.127 340.327 352.573 339.955 351.981 339.661C350.448 338.918 348.702 338.693 347.021 338.477C346.874 338.458 346.727 338.439 346.581 338.42C344.766 338.183 342.84 337.854 341.31 336.804C340.087 335.985 339.295 334.661 339.15 333.195C339.148 333.168 339.148 333.141 339.15 333.113V333.074C339.148 332.896 339.161 332.719 339.189 332.543C339.194 332.485 339.202 332.427 339.215 332.37C339.241 332.249 339.267 332.132 339.302 332.016C339.872 330.192 341.842 329.219 343.686 328.74C344.064 328.641 344.448 328.553 344.833 328.465C346.327 328.121 347.832 327.776 349.017 326.834L349.233 326.652C349.341 326.562 349.454 326.475 349.57 326.384L349.626 326.341C349.353 325.877 349.204 325.35 349.194 324.811C349.194 324.804 349.194 324.797 349.194 324.79C349.192 324.771 349.192 324.752 349.194 324.733C349.188 324.662 349.188 324.589 349.194 324.517C349.254 323.971 349.411 323.44 349.657 322.949C349.742 322.761 349.833 322.576 349.924 322.392C350.041 322.156 350.157 321.921 350.262 321.678C350.899 320.189 351.053 318.561 351.207 316.939L351.212 316.89C351.223 316.776 351.233 316.663 351.243 316.551C351.266 316.303 351.289 316.056 351.316 315.809C351.7 312.189 352.609 308.67 353.517 305.153C353.865 303.809 354.212 302.465 354.53 301.115L354.556 301.012C354.664 300.558 354.767 300.104 354.862 299.646C354.868 299.626 354.874 299.606 354.881 299.586C354.896 299.543 354.91 299.5 354.91 299.456C353.785 297.12 352.409 294.915 350.806 292.878C348.974 290.583 347.634 287.935 346.87 285.099C346.847 285.006 346.823 284.905 346.799 284.805C346.76 284.643 346.721 284.482 346.689 284.356C346.655 284.225 346.626 284.092 346.596 283.96C346.579 283.887 346.563 283.814 346.546 283.742C346.489 283.483 346.437 283.224 346.385 282.964C346.35 282.791 346.315 282.619 346.278 282.446C345.23 277.326 344.222 272.199 343.254 267.065L343.231 266.943C343.183 266.695 343.135 266.45 343.09 266.2C342.197 261.403 341.319 256.605 340.455 251.805V251.654C340.269 250.746 340.118 249.839 340.023 248.927C340.018 248.872 340.012 248.817 340.007 248.762C339.98 248.505 339.954 248.245 339.954 247.989C339.952 247.96 339.952 247.931 339.954 247.902V247.388V247.336C339.576 246.259 339.345 245.135 339.267 243.996V243.961C339.241 243.706 339.215 243.451 339.215 243.192V243.123C339.038 242.427 338.861 241.722 338.727 241.04C338.581 240.396 338.489 239.741 338.451 239.082V239.06C338.416 238.566 338.465 238.069 338.597 237.591C338.839 236.843 338.986 234.687 339.112 232.284C339.147 231.677 339.18 231.051 339.212 230.431L339.22 230.279V230.231V230.205V229.924V229.656C339.2 228.152 339.304 226.649 339.531 225.162C339.574 224.868 339.634 224.583 339.703 224.297C339.724 224.151 339.757 224.006 339.803 223.865C340.041 222.919 340.373 222 340.796 221.121C341.012 220.595 341.261 220.084 341.544 219.591L341.604 219.487C341.729 219.28 341.859 219.09 341.989 218.913C342.006 218.89 342.024 218.868 342.042 218.846C342.065 218.819 342.088 218.792 342.11 218.766H341.989C340.853 218.81 339.721 218.916 338.597 219.081C338.317 219.124 337.962 219.146 337.794 218.913C337.732 218.82 337.696 218.712 337.69 218.601V218.493C337.636 217.16 337.951 215.838 338.602 214.673C338.69 214.521 338.783 214.369 338.878 214.216C339.2 213.694 339.527 213.164 339.634 212.586C339.657 212.453 339.667 212.318 339.664 212.184C339.634 211.755 339.528 211.336 339.353 210.943C338.832 209.543 338.311 208.141 337.79 206.738C337.461 205.826 337.229 204.881 337.098 203.921C336.916 202.634 336.863 201.309 336.81 199.984C336.747 198.417 336.683 196.85 336.407 195.346C335.859 192.421 335.504 189.463 335.344 186.491C335.31 186.163 335.31 185.83 335.31 185.497V185.497V185.458C335.267 183.237 335.517 180.933 336.813 179.205C336.865 179.137 336.92 179.069 336.974 179.003C337.006 178.963 337.038 178.924 337.068 178.885C337.428 178.498 337.73 178.061 337.967 177.588C338.179 176.974 338.27 176.324 338.235 175.674V175.095V174.779C338.246 171.452 338.178 168.127 338.032 164.805C338.027 164.684 338.02 164.563 338.013 164.442C338.001 164.23 337.988 164.018 337.988 163.807H337.945L337.081 163.776C330.746 163.559 324.439 162.822 318.224 161.572C317.456 161.437 316.701 161.233 315.969 160.963C315.159 160.578 314.396 160.099 313.697 159.537C311.472 157.933 309.221 156.3 307.541 154.139C305.529 151.525 304.266 148.414 303.886 145.137C302.283 143.668 301.432 141.559 300.629 139.519C300.317 138.802 300.088 138.053 299.946 137.284C299.913 137.125 299.893 136.963 299.886 136.8C299.931 136.133 300.06 135.474 300.27 134.838C300.342 134.521 300.353 134.192 300.305 133.87C299.996 132.227 299.166 130.726 297.937 129.592C297.8 129.473 297.673 129.343 297.557 129.203C297.474 129.099 297.417 128.978 297.389 128.848C297.354 128.669 297.372 128.482 297.44 128.313C297.449 128.291 297.46 128.27 297.471 128.249C297.493 128.207 297.514 128.167 297.514 128.127C297.527 128.098 297.543 128.07 297.561 128.045C297.445 127.958 297.319 127.872 297.19 127.783C297.17 127.77 297.15 127.756 297.129 127.742C296.602 127.37 296.101 126.96 295.609 126.554C294.859 125.987 294.195 125.315 293.639 124.557C293.396 124.192 293.217 123.789 293.107 123.364C293.09 123.302 293.077 123.238 293.069 123.174L293.043 123.044C292.969 122.636 292.991 122.216 293.107 121.817C293.169 121.623 293.255 121.436 293.341 121.249C293.482 120.94 293.624 120.632 293.656 120.296C293.671 120.132 293.666 119.953 293.66 119.774C293.644 119.294 293.629 118.814 294.019 118.606C294.156 118.53 294.318 118.515 294.478 118.5C294.666 118.483 294.853 118.465 295 118.351C295.16 118.16 295.26 117.925 295.285 117.677C295.478 116.993 295.977 116.437 296.637 116.173C296.887 116.066 297.155 116.008 297.427 116.004C297.11 115.162 296.339 114.668 295.557 114.168C294.924 113.763 294.284 113.354 293.872 112.75C293.824 112.676 293.782 112.598 293.747 112.517C293.457 111.83 293.652 110.831 294.378 110.831C294.565 110.844 294.749 110.894 294.918 110.978L297.942 112.219C298.526 112.446 299.095 112.709 299.648 113.005C301.298 113.943 302.538 115.477 303.653 117.029C303.731 117.151 303.811 117.263 303.889 117.373C303.966 117.482 304.042 117.589 304.115 117.703C304.232 117.871 304.344 118.04 304.452 118.213C305.155 119.247 305.72 120.368 306.132 121.549C306.468 122.549 306.647 123.594 306.664 124.648V124.963C306.92 125.006 307.151 125.085 307.388 125.165C307.606 125.24 307.828 125.315 308.076 125.365C308.269 125.879 308.463 126.394 308.657 126.908C308.852 127.422 309.046 127.937 309.238 128.451C309.36 128.8 309.513 129.137 309.696 129.458C309.779 129.601 309.879 129.733 309.994 129.851L310.038 129.886C310.285 130.109 310.548 130.316 310.824 130.504C312.03 131.531 312.646 133.091 312.466 134.665C314.382 135.418 315.541 137.377 315.278 139.419C315.244 139.678 315.183 139.933 315.096 140.18L315.312 140.232C317.004 140.676 318.363 141.933 318.937 143.585C318.969 143.667 318.998 143.758 319.028 143.851C319.066 143.97 319.105 144.092 319.153 144.203C319.205 144.32 319.269 144.432 319.343 144.536C319.371 144.576 319.405 144.613 319.442 144.644C319.823 144.943 320.298 145.097 320.782 145.076C321.29 145.108 321.774 145.283 322.245 145.452C322.995 145.723 323.713 145.982 324.445 145.634C325.803 144.995 327.323 144.783 328.804 145.025C329.105 145.095 329.415 145.122 329.724 145.107C329.992 145.062 330.251 144.971 330.489 144.839C331.025 144.522 331.608 144.291 332.217 144.156C332.84 144.027 333.481 144.275 333.854 144.791C334.085 144.536 334.261 144.242 334.438 143.948C334.581 143.709 334.725 143.469 334.899 143.248C335.288 142.756 335.884 142.345 336.494 142.483C336.096 142.129 336.507 141.42 337.021 141.291L337.111 141.269C337.61 141.254 338.108 141.281 338.602 141.351C339.377 141.346 340.054 140.941 340.737 140.532C341.15 140.284 341.565 140.036 342.006 139.873C342.125 139.823 342.248 139.783 342.373 139.752C342.757 139.658 343.18 139.628 343.6 139.599C344.531 139.533 345.446 139.469 345.881 138.706C345.958 138.573 346.013 138.423 346.067 138.275C346.158 138.031 346.247 137.79 346.43 137.626C346.494 137.326 346.628 137.046 346.823 136.809C347.328 136.23 348.184 136.148 348.948 136.174C349.787 136.198 350.618 136.343 351.415 136.606C351.437 136.499 351.466 136.394 351.501 136.29C351.982 134.882 352.948 133.692 354.227 132.932C355.234 132.336 356.327 131.899 357.467 131.636V131.606V131.346C357.488 130.359 357.383 129.373 357.156 128.412C357.126 128.261 357.096 128.118 357.053 127.98C356.988 127.699 356.901 127.422 356.811 127.141C356.791 127.079 356.768 127.015 356.745 126.95C356.716 126.871 356.688 126.79 356.664 126.709C356.487 126.666 356.314 126.614 356.145 126.562C350.031 124.726 345.75 119.217 345.479 112.837V112.806V112.184C345.483 108.169 347.097 104.323 349.959 101.509C349.966 101.205 350.005 100.902 350.076 100.606C350.244 99.9588 350.555 99.3576 350.987 98.8473C351.371 97.9565 352.016 97.2031 352.836 96.6864C352.945 96.6102 353.057 96.5396 353.173 96.4746C353.471 96.3061 353.778 96.1505 354.106 95.9949C354.315 95.8942 354.537 95.7947 354.766 95.6924C354.959 95.606 355.157 95.5175 355.355 95.4245C355.862 95.1958 356.365 94.9427 356.87 94.6888C358.541 93.8487 360.229 93 362.133 93C363.248 93 364.337 93.3027 365.423 93.6044C366.547 93.9166 367.667 94.2278 368.807 94.2014H368.972H369.14H369.347C369.399 94.1951 369.45 94.1883 369.502 94.1815C370.09 94.1045 370.735 94.0201 371.132 94.4607C371.265 94.6516 371.373 94.8594 371.451 95.0787C371.482 95.15 371.519 95.2181 371.564 95.2819C371.642 95.4228 371.738 95.5534 371.849 95.6708C372.015 95.8533 372.204 96.0144 372.41 96.1505C372.431 96.1638 372.451 96.1771 372.471 96.1904C372.562 96.2505 372.653 96.31 372.752 96.3666C373.108 96.5691 373.496 96.7407 373.881 96.9114C374.187 97.0466 374.491 97.1813 374.778 97.3303C377.024 98.4885 378.51 100.848 379.098 103.32C379.388 104.595 379.505 105.903 379.448 107.21V107.27C379.395 108.487 379.259 109.698 379.042 110.896C378.817 112.145 378.316 113.563 377.452 114.353L378.1 114.825C378.8 115.352 380.005 116.268 381.124 117.214C381.16 117.245 381.197 117.276 381.234 117.306C381.33 117.386 381.426 117.466 381.517 117.547C383.025 118.857 384.226 120.145 383.599 120.49C383.512 120.537 383.413 120.556 383.314 120.546C382.346 120.512 380.005 119.073 377.776 117.547L377.301 117.214L377.262 117.193L377.041 117.037L377.003 117.219C376.996 117.247 376.989 117.274 376.981 117.301C376.973 117.328 376.966 117.355 376.959 117.383C376.955 117.403 376.948 117.424 376.941 117.444C376.928 117.48 376.916 117.516 376.916 117.552C376.889 117.664 376.856 117.777 376.823 117.889C376.805 117.953 376.787 118.016 376.769 118.079C376.745 118.149 376.724 118.218 376.703 118.287C376.691 118.327 376.678 118.367 376.666 118.407C376.393 119.259 376.074 120.093 375.728 120.905C375.205 122.133 374.501 123.429 373.339 123.978C373.218 124.034 373.092 124.08 372.963 124.116C372.653 124.202 372.331 124.238 372.009 124.224H371.831H371.736V125.426C371.734 125.436 371.734 125.446 371.736 125.456V125.499C371.776 127.124 371.995 128.741 372.389 130.318C373.21 130.274 374.022 130.499 374.704 130.957C374.958 131.212 375.281 131.387 375.633 131.459C376.001 131.415 376.343 131.245 376.601 130.979C378.691 129.477 381.543 129.63 383.461 131.346C384.716 132.524 385.324 134.219 385.928 135.901C385.958 135.985 385.988 136.068 386.018 136.152C386.042 136.21 386.063 136.27 386.084 136.33C386.102 136.382 386.12 136.433 386.139 136.485C386.792 138.265 387.518 139.96 389.09 140.915C389.346 141.071 389.622 141.207 389.897 141.342C390.572 141.672 391.245 142.002 391.613 142.643C391.738 142.929 391.882 143.207 392.045 143.473C392.258 143.711 392.52 143.898 392.814 144.022C393.744 144.441 394.63 144.954 395.458 145.552ZM367.378 338.766L367.421 338.792L367.498 338.835C366.879 337.49 366.303 336.123 365.77 334.734C365.701 334.57 365.641 334.405 365.585 334.241C365.583 334.282 365.583 334.322 365.585 334.362C365.594 334.507 365.608 334.657 365.62 334.804C365.631 334.925 365.642 335.044 365.65 335.153C365.652 335.191 365.655 335.23 365.658 335.268C365.673 335.473 365.688 335.68 365.688 335.883V336.022V336.363V337.098C365.676 337.509 365.628 337.918 365.546 338.321H365.572C365.62 338.324 365.669 338.331 365.718 338.337C365.792 338.346 365.866 338.355 365.939 338.355C366.435 338.425 366.919 338.563 367.378 338.766Z" fill="url(#paint22_linear)"/>
<path d="M357.77 132.489C357.714 134.673 356.974 136.797 356.858 138.977C363.313 139.296 369.635 136.173 376 137.129C374.223 135.979 373.272 133.898 372.712 131.852C371.997 129.212 371.783 126.462 372.084 123.744C372.1 123.599 372.126 123.455 372.161 123.313C372.398 122.245 373.022 120.728 372.845 119.888C372.63 118.777 371.58 118.997 370.638 119.061C367.76 119.282 364.896 119.651 362.056 120.168C361.316 120.298 354.108 122.098 354 121.913C355.188 123.968 356.397 126.105 357.12 128.345C357.568 129.68 357.787 131.081 357.77 132.489Z" fill="#EE8E9E"/>
<path d="M293.655 125.549C294.223 126.303 294.904 126.97 295.677 127.527C296.177 127.927 296.69 128.336 297.23 128.702C298.19 129.416 299.332 129.863 300.534 129.992C302.109 130.095 305.454 129.196 306.431 127.884C306.844 127.226 307.04 126.46 306.993 125.691C306.977 124.646 306.795 123.61 306.454 122.62C305.839 121.009 304.979 119.499 303.901 118.138C302.764 116.598 301.499 115.084 299.804 114.151C299.24 113.857 298.658 113.597 298.061 113.372L294.964 112.142C294.788 112.061 294.597 112.013 294.403 112C293.575 112 293.425 113.234 293.894 113.897C294.832 115.235 296.942 115.617 297.535 117.123C296.506 117.146 295.611 117.814 295.323 118.774C295.3 119.023 295.196 119.258 295.026 119.445C294.756 119.656 294.332 119.536 294.022 119.695C293.478 119.979 293.717 120.77 293.659 121.372C293.606 121.906 293.261 122.366 293.093 122.878C292.861 123.805 293.067 124.784 293.655 125.549Z" fill="#EE8E9E"/>
<path d="M382 345.38C381.517 344.875 380.739 344.963 380.05 345.073C376.426 345.672 372.764 345.981 369.095 346C368.637 343.654 369.969 341.373 370.397 339.022C370.454 338.418 370.595 337.826 370.818 337.265C371.33 336.228 372.498 335.753 373.591 335.507C375.566 335.067 378.634 334.303 379.756 336.386C381.096 338.895 381.521 342.595 382 345.38Z" fill="#65617D"/>
<path d="M341.224 337.319C342.782 338.393 344.719 338.726 346.594 338.97C348.469 339.214 350.397 339.391 352.096 340.234C353.562 340.962 354.795 342.159 356.348 342.683C357.757 343.158 359.298 343.029 360.75 342.754C362.511 342.426 364.351 341.782 365.293 340.265C366.134 338.934 366.041 337.209 365.927 335.62C365.79 333.846 365.663 332.027 365.53 330.23C365.535 329.774 365.421 329.325 365.2 328.926C363.937 327.076 360.873 329.702 359.236 329.698C356.635 329.698 353.844 328.278 351.973 326.539C351.811 326.361 351.62 326.212 351.41 326.096C350.666 325.758 349.926 326.38 349.266 326.921C349.196 326.983 349.121 327.041 349.046 327.098C347.527 328.314 345.494 328.558 343.619 329.05C341.744 329.543 339.732 330.532 339.151 332.395C339.113 332.513 339.084 332.633 339.063 332.755C338.728 334.498 339.767 336.312 341.224 337.319Z" fill="#3F3D56"/>
<path opacity="0.05" d="M341.224 337.319C342.782 338.393 344.719 338.726 346.594 338.97C348.469 339.214 350.397 339.391 352.096 340.234C353.562 340.962 354.795 342.159 356.348 342.683C357.757 343.158 359.298 343.029 360.75 342.754C362.511 342.426 364.351 341.782 365.293 340.265C366.134 338.934 366.041 337.209 365.927 335.62C365.79 333.846 365.663 332.027 365.53 330.23C365.535 329.774 365.421 329.325 365.2 328.926C363.937 327.076 360.873 329.702 359.236 329.698C356.635 329.698 353.844 328.278 351.973 326.539C351.811 326.361 351.62 326.212 351.41 326.096C350.666 325.758 349.926 326.38 349.266 326.921C349.196 326.983 349.121 327.041 349.046 327.098C347.527 328.314 345.494 328.558 343.619 329.05C341.744 329.543 339.732 330.532 339.151 332.395C339.113 332.513 339.084 332.633 339.063 332.755C338.728 334.498 339.767 336.312 341.224 337.319Z" fill="black"/>
<path d="M341.374 337.518C342.923 338.554 344.848 338.875 346.712 339.111C348.576 339.346 350.492 339.518 352.181 340.331C353.637 341.037 354.863 342.189 356.407 342.694C357.807 343.152 359.338 343.028 360.782 342.763C362.629 342.377 364.249 341.302 365.297 339.766C366.133 338.482 366.041 336.816 365.927 335.284C365.791 333.571 365.665 331.816 365.533 330.082C365.537 329.642 365.424 329.208 365.205 328.824C363.95 327.038 360.904 329.573 359.277 329.568C356.691 329.568 353.917 328.199 352.058 326.52C351.897 326.349 351.707 326.204 351.498 326.092C350.759 325.767 350.024 326.366 349.367 326.889C349.799 328.185 350.41 329.418 351.183 330.553C352.496 332.432 354.561 333.871 356.871 334.038C358.026 334.119 359.211 333.897 360.327 334.188C361.443 334.479 362.484 335.596 362.077 336.658C361.67 337.72 360.327 337.942 359.198 337.981C357.619 338.062 356 338.139 354.504 337.66C353.589 337.36 352.754 336.868 351.879 336.504C348.094 334.967 343.312 335.827 340.184 333.233C339.889 332.967 339.57 332.728 339.23 332.518C338.412 334.213 339.926 336.547 341.374 337.518Z" fill="#E8EAF2"/>
<path opacity="0.05" d="M341.374 337.518C342.923 338.554 344.848 338.875 346.712 339.111C348.576 339.346 350.492 339.518 352.181 340.331C353.637 341.037 354.863 342.189 356.407 342.694C357.807 343.152 359.338 343.028 360.782 342.763C362.629 342.377 364.249 341.302 365.297 339.766C366.133 338.482 366.041 336.816 365.927 335.284C365.791 333.571 365.665 331.816 365.533 330.082C365.537 329.642 365.424 329.208 365.205 328.824C363.95 327.038 360.904 329.573 359.277 329.568C356.691 329.568 353.917 328.199 352.058 326.52C351.897 326.349 351.707 326.204 351.498 326.092C350.759 325.767 350.024 326.366 349.367 326.889C349.799 328.185 350.41 329.418 351.183 330.553C352.496 332.432 354.561 333.871 356.871 334.038C358.026 334.119 359.211 333.897 360.327 334.188C361.443 334.479 362.484 335.596 362.077 336.658C361.67 337.72 360.327 337.942 359.198 337.981C357.619 338.062 356 338.139 354.504 337.66C353.589 337.36 352.754 336.868 351.879 336.504C348.094 334.967 343.312 335.827 340.184 333.233C339.889 332.967 339.57 332.728 339.23 332.518C338.412 334.213 339.926 336.547 341.374 337.518Z" fill="black"/>
<path d="M381.539 222.802C382.727 228.675 381.599 234.782 378.396 239.832C377.534 241.194 376.501 242.474 375.847 243.953C375.417 245.011 375.082 246.106 374.848 247.224L372.023 259.019C371.257 262.203 370.49 265.447 370.731 268.714C370.891 270.991 371.459 273.55 370.068 275.351C369.725 275.693 369.435 276.085 369.207 276.513C369.074 277.016 369.074 277.546 369.207 278.049C370.637 286.612 371.7 295.561 369.117 303.846C366.774 311.355 366.637 319.675 364.647 327.27C364.402 328.216 364.118 329.209 363.407 329.873C362.874 330.317 362.236 330.616 361.556 330.741C358.619 331.448 355.528 330.619 352.781 329.344C350.856 328.446 348.785 326.871 348.949 324.741C349.03 323.726 349.616 322.837 350.016 321.904C350.796 320.074 350.878 318.031 351.071 316.048C351.601 311.068 353.125 306.266 354.275 301.395C355.424 296.524 356.208 291.44 355.235 286.529C353.251 276.378 350.071 266.501 345.762 257.11C345.576 256.616 345.282 256.171 344.901 255.809C344.514 255.488 344.001 255.34 343.67 254.941C343.338 254.542 343.239 253.935 343.11 253.401C342.679 251.848 341.409 250.703 340.557 249.337C338.404 245.892 339.084 241.476 339.166 237.407C339.243 233.447 338.679 229.452 339.321 225.548C339.963 221.644 342.184 217.653 345.922 216.438C347.773 215.835 349.775 215.97 351.713 216.165C361.935 217.193 371.898 219.089 381.539 222.802Z" fill="#303D5C"/>
<path opacity="0.05" d="M381.539 222.802C382.727 228.675 381.599 234.782 378.396 239.832C377.534 241.194 376.501 242.474 375.847 243.953C375.417 245.011 375.082 246.106 374.848 247.224L372.023 259.019C371.257 262.203 370.49 265.447 370.731 268.714C370.891 270.991 371.459 273.55 370.068 275.351C369.725 275.693 369.435 276.085 369.207 276.513C369.074 277.016 369.074 277.546 369.207 278.049C370.637 286.612 371.7 295.561 369.117 303.846C366.774 311.355 366.637 319.675 364.647 327.27C364.402 328.216 364.118 329.209 363.407 329.873C362.874 330.317 362.236 330.616 361.556 330.741C358.619 331.448 355.528 330.619 352.781 329.344C350.856 328.446 348.785 326.871 348.949 324.741C349.03 323.726 349.616 322.837 350.016 321.904C350.796 320.074 350.878 318.031 351.071 316.048C351.601 311.068 353.125 306.266 354.275 301.395C355.424 296.524 356.208 291.44 355.235 286.529C353.251 276.378 350.071 266.501 345.762 257.11C345.576 256.616 345.282 256.171 344.901 255.809C344.514 255.488 344.001 255.34 343.67 254.941C343.338 254.542 343.239 253.935 343.11 253.401C342.679 251.848 341.409 250.703 340.557 249.337C338.404 245.892 339.084 241.476 339.166 237.407C339.243 233.447 338.679 229.452 339.321 225.548C339.963 221.644 342.184 217.653 345.922 216.438C347.773 215.835 349.775 215.97 351.713 216.165C361.935 217.193 371.898 219.089 381.539 222.802Z" fill="black"/>
<path d="M340.509 247.609C340.542 249.14 340.715 250.665 341.026 252.165C342.833 262.353 344.76 272.518 346.806 282.66C346.987 283.525 347.163 284.42 347.4 285.284C348.163 288.106 349.496 290.74 351.316 293.023C359.838 303.692 360.574 319.19 365.2 332.06C365.51 332.924 365.825 333.789 366.156 334.654C366.99 336.836 367.942 338.97 369.009 341.048C369.132 341.351 369.334 341.615 369.595 341.813C369.882 341.957 370.204 342.02 370.524 341.994C374.69 342.022 378.806 341.086 382.554 339.258C383.093 339.062 383.548 338.687 383.845 338.194C383.986 337.802 384.032 337.381 383.978 336.967C383.849 334.416 383.694 331.779 382.485 329.531C381.679 328.19 380.682 326.975 379.524 325.925C379.162 317.919 378.375 309.895 376.623 302.075C375.723 298.076 374.609 294.034 372.319 290.653C370.598 288.159 368.17 285.699 368.471 282.686C368.605 281.389 369.156 279.72 368.084 278.942C367.615 278.601 366.922 278.558 366.608 278.078C366.481 277.85 366.41 277.595 366.401 277.334C366.18 275.268 366.308 273.18 366.78 271.156C367.09 269.816 367.555 268.502 367.697 267.132C367.839 265.761 367.598 264.27 366.69 263.241C366.634 260.491 366.69 257.621 366.651 254.897C366.625 253.328 366.595 251.737 367.034 250.237C367.245 249.515 367.559 248.828 367.718 248.076C368.291 245.438 366.857 242.274 368.579 240.182C369.289 239.317 370.382 238.885 371.308 238.254C373.163 237.008 374.376 234.977 375.052 232.845C375.728 230.714 375.913 228.457 376.115 226.222C376.164 225.747 376.164 225.267 376.115 224.791C376.087 224.546 376.023 224.306 375.926 224.078C375.396 222.885 373.976 222.422 372.711 222.115C364.676 220.179 356.441 219.213 348.179 219.236C345.123 217.144 343.402 217.892 342.106 220.101C341.393 221.454 340.817 222.874 340.385 224.342C339.791 226.136 339.756 236.191 339.179 237.994C338.375 240.355 340.539 245.144 340.509 247.609Z" fill="#303D5C"/>
<path d="M395.717 156.26C395.949 157.848 395.179 159.409 395.092 161.009C395.018 162.406 395.468 163.772 395.726 165.151C396.728 170.529 394.803 175.972 392.84 181.081C392.469 181.905 392.239 182.785 392.157 183.683C392.105 185.353 393.071 186.88 393.338 188.528C393.894 191.998 391.322 195.246 391.265 198.755C391.265 200.368 391.755 202.012 391.348 203.573C391.077 204.618 390.421 205.512 389.953 206.488C389.126 208.222 388.908 210.17 388.116 211.909C386.695 215.058 383.633 217.113 380.724 219C379.067 218.454 377.274 217.803 376.351 216.324C375.952 215.596 375.695 214.8 375.594 213.978C374.964 210.391 374.986 206.73 375.008 203.092C374.963 199.973 375.135 196.854 375.524 193.758C376.11 189.803 377.405 185.991 378.332 182.1C379.504 177.195 380.081 172.125 381.927 167.419C383.528 163.282 386.025 159.569 388.654 156.017C389.655 154.66 390.447 152.721 392.393 153.034C394.072 153.315 395.398 154.602 395.717 156.26Z" fill="#3B50E1"/>
<path opacity="0.05" d="M395.717 156.26C395.949 157.848 395.179 159.409 395.092 161.009C395.018 162.406 395.468 163.772 395.726 165.151C396.728 170.529 394.803 175.972 392.84 181.081C392.469 181.905 392.239 182.785 392.157 183.683C392.105 185.353 393.071 186.88 393.338 188.528C393.894 191.998 391.322 195.246 391.265 198.755C391.265 200.368 391.755 202.012 391.348 203.573C391.077 204.618 390.421 205.512 389.953 206.488C389.126 208.222 388.908 210.17 388.116 211.909C386.695 215.058 383.633 217.113 380.724 219C379.067 218.454 377.274 217.803 376.351 216.324C375.952 215.596 375.695 214.8 375.594 213.978C374.964 210.391 374.986 206.73 375.008 203.092C374.963 199.973 375.135 196.854 375.524 193.758C376.11 189.803 377.405 185.991 378.332 182.1C379.504 177.195 380.081 172.125 381.927 167.419C383.528 163.282 386.025 159.569 388.654 156.017C389.655 154.66 390.447 152.721 392.393 153.034C394.072 153.315 395.398 154.602 395.717 156.26Z" fill="black"/>
<path opacity="0.1" d="M354 121.98C355.197 124.082 356.415 126.268 357.143 128.559C358.311 128.852 359.509 129 360.711 129C365.38 129 368.688 126.299 371.433 122.888C371.671 121.79 373.167 120.773 372.985 119.909C372.768 118.772 371.71 118.997 370.761 119.063C367.862 119.288 364.976 119.666 362.116 120.195C361.37 120.327 354.121 122.169 354 121.98Z" fill="black"/>
<path d="M361 128C369.284 128 376 121.284 376 113C376 104.716 369.284 98 361 98C352.716 98 346 104.716 346 113C346 121.284 352.716 128 361 128Z" fill="#EE8E9E"/>
<path opacity="0.1" d="M342 220.17C344.582 220.014 347.163 220.121 349.745 220.228C351.357 220.244 352.965 220.416 354.547 220.74C356.496 221.186 358.32 222.117 360.243 222.692C363.324 223.623 366.577 223.663 369.765 223.988C371.861 224.201 373.942 224.538 376 225C375.971 224.747 375.908 224.499 375.811 224.265C375.281 223.035 373.862 222.558 372.597 222.242C364.564 220.246 356.331 219.25 348.071 219.274C345.016 217.117 343.295 217.888 342 220.17Z" fill="black"/>
<path d="M351.331 137.284C351.983 138.035 352.854 138.865 353.816 138.623C354.163 138.502 354.489 138.327 354.782 138.105C356.507 136.995 358.603 136.736 360.621 136.433C364.69 135.819 368.709 134.914 372.649 133.726C373.792 133.308 374.992 133.063 376.207 133C378.73 133 380.951 134.693 382.547 136.662C384.142 138.631 385.246 140.933 386.799 142.924C387.903 144.345 389.218 145.597 390.249 147.07C392.837 150.788 393.415 155.642 392.742 160.138C392.069 164.633 390.275 168.866 388.498 173.05C387.48 175.447 386.454 177.857 385.048 180.042C385.647 183.458 385.333 187.362 383.711 190.407C383.181 191.404 382.534 192.376 382.361 193.494C382.279 194.249 382.31 195.012 382.452 195.757L383.211 201.151C383.439 202.796 383.672 204.437 383.97 206.07C384.518 209.058 385.264 212.302 383.879 215.005C382.223 218.24 383.961 222.39 383.526 226C378.869 224.197 373.99 223.035 369.022 222.545C365.822 222.23 362.553 222.191 359.478 221.293C357.55 220.731 355.726 219.842 353.768 219.393C352.181 219.081 350.568 218.917 348.951 218.9C345.384 218.758 341.792 218.615 338.264 219.142C337.975 219.185 337.63 219.207 337.458 218.974C337.38 218.843 337.343 218.693 337.35 218.542C337.295 217.217 337.612 215.904 338.264 214.75C338.695 213.956 339.338 213.174 339.321 212.263C339.288 211.836 339.183 211.418 339.01 211.028L337.449 206.847C336.125 203.323 336.755 199.225 336.069 195.524C335.534 192.629 335.191 189.702 335.043 186.762C334.913 184.248 334.995 181.523 336.509 179.515C336.952 179.032 337.336 178.497 337.652 177.922C337.87 177.312 337.962 176.664 337.923 176.017C337.958 170.99 337.814 165.965 337.492 160.941C338.816 158.566 340.192 156.134 341.512 153.759C343.047 150.995 344.608 148.175 345.229 145.075C345.66 143.019 345.626 140.907 345.919 138.834C345.948 138.307 346.131 137.799 346.445 137.375C346.95 136.805 347.799 136.723 348.563 136.744C349.508 136.782 350.441 136.964 351.331 137.284Z" fill="#3B50E1"/>
<path opacity="0.1" d="M297 128.564C297.983 129.355 299.152 129.848 300.382 129.991C301.994 130.105 305.417 129.111 306.418 127.661C306.84 126.932 307.041 126.086 306.993 125.235C306.776 125.161 306.551 125.114 306.323 125.097C304.571 124.988 302.782 124.879 301.08 125.321C299.377 125.763 297.729 126.848 297.005 128.531L297 128.564Z" fill="black"/>
<path d="M347.16 161.26C346.251 162.393 345.313 163.566 344.03 164.235C342.553 165.008 340.814 165.025 339.152 164.99C332.305 164.843 325.484 164.087 318.768 162.732C318.004 162.6 317.253 162.396 316.525 162.124C315.719 161.737 314.958 161.259 314.257 160.7C312.048 159.098 309.805 157.465 308.122 155.302C306.124 152.693 304.868 149.584 304.488 146.309C302.887 144.824 302.039 142.709 301.238 140.664C300.845 139.798 300.594 138.872 300.498 137.924C300.455 136.956 301.092 135.939 300.928 134.984C300.62 133.34 299.794 131.84 298.573 130.707C298.313 130.521 298.116 130.259 298.009 129.956C297.978 129.702 298.026 129.446 298.147 129.222C298.827 127.684 300.394 126.694 302.022 126.291C303.649 125.887 305.341 125.991 307.007 126.091C307.61 126.13 308.049 126.412 308.638 126.525L309.801 129.612C309.958 130.128 310.217 130.607 310.563 131.019C310.822 131.255 311.096 131.473 311.385 131.671C312.581 132.698 313.193 134.256 313.021 135.831C315.201 136.683 316.348 139.098 315.643 141.346C317.42 141.731 318.871 143.02 319.474 144.75C319.557 145.138 319.728 145.5 319.974 145.81C320.355 146.109 320.829 146.263 321.312 146.244C322.604 146.326 323.771 147.369 324.963 146.804C326.309 146.167 327.813 145.954 329.281 146.192C329.584 146.265 329.896 146.292 330.207 146.274C330.472 146.228 330.727 146.138 330.964 146.009C331.501 145.695 332.082 145.464 332.686 145.323C333.307 145.193 333.946 145.443 334.318 145.962C334.748 145.501 334.985 144.911 335.364 144.42C335.706 143.883 336.319 143.587 336.948 143.656C336.552 143.3 336.948 142.592 337.469 142.462C337.99 142.331 338.524 142.523 339.053 142.523C340.427 142.523 341.481 141.255 342.816 140.924C344.043 140.625 345.679 140.985 346.307 139.878C346.531 139.487 346.574 138.957 346.953 138.719C347.209 138.59 347.501 138.555 347.78 138.619C348.652 138.736 349.5 138.996 350.29 139.387C351.581 144.464 350.901 149.735 349.919 154.881C349.45 157.326 348.71 159.306 347.16 161.26Z" fill="#3B50E1"/>
<path opacity="0.1" d="M346.521 178.741L353 192C352.298 190.776 350.82 190.298 349.656 189.516C348.173 188.434 347.057 186.913 346.46 185.163C345.862 183.417 345.444 181.613 345.213 179.78C345.082 178.94 344.807 177.76 345.213 177C345.967 177.155 346.211 178.118 346.521 178.741Z" fill="black"/>
<path opacity="0.1" d="M365.626 190.539C367.05 191.989 368.798 193.055 370.368 194.34C374.034 197.337 376.645 201.453 379.197 205.49C379.917 206.552 380.522 207.692 381 208.89C380.702 209.156 380.256 208.89 379.962 208.615L374.995 204.132C374.386 203.619 373.832 203.042 373.341 202.41C372.49 201.222 372.099 199.732 371.316 198.478C370.534 197.224 369.394 196.293 368.301 195.319C367.208 194.344 361.921 189.765 363.197 188C364.12 188.472 364.881 189.783 365.626 190.539Z" fill="black"/>
<path d="M354.904 134.02C356.517 133.014 358.417 132.592 360.286 132.248C361.409 131.993 362.564 131.911 363.712 132.004C364.771 132.135 365.786 132.544 366.854 132.601C368.348 132.688 369.782 132.078 371.211 131.686C372.641 131.294 374.327 131.137 375.543 132.013C375.802 132.267 376.129 132.441 376.484 132.514C376.853 132.469 377.196 132.3 377.456 132.035C379.564 130.529 382.435 130.68 384.372 132.4C387.131 134.983 386.821 140.03 390.037 141.981C390.931 142.521 392.068 142.809 392.587 143.723C392.71 144.012 392.856 144.29 393.022 144.555C393.238 144.793 393.503 144.982 393.798 145.108C394.736 145.527 395.63 146.039 396.465 146.637C397.305 147.249 397.859 148.177 397.999 149.206C398.014 149.959 397.851 150.705 397.524 151.384C394.286 159.328 386.392 164.373 377.818 163.978C377.081 163.944 376.284 163.843 375.752 163.334C375.442 162.984 375.196 162.582 375.029 162.145C373.512 158.962 370.671 156.61 368.845 153.583C367.764 151.78 367.072 149.764 365.947 147.987C364.274 145.287 361.681 143.279 359.153 141.367C357.724 140.279 356.133 139.138 354.334 139.212C352.734 139.281 351.566 139.368 352.155 137.404C352.637 135.984 353.613 134.784 354.904 134.02Z" fill="#3B50E1"/>
<path opacity="0.05" d="M354.904 134.02C356.517 133.014 358.417 132.592 360.286 132.248C361.409 131.993 362.564 131.911 363.712 132.004C364.771 132.135 365.786 132.544 366.854 132.601C368.348 132.688 369.782 132.078 371.211 131.686C372.641 131.294 374.327 131.137 375.543 132.013C375.802 132.267 376.129 132.441 376.484 132.514C376.853 132.469 377.196 132.3 377.456 132.035C379.564 130.529 382.435 130.68 384.372 132.4C387.131 134.983 386.821 140.03 390.037 141.981C390.931 142.521 392.068 142.809 392.587 143.723C392.71 144.012 392.856 144.29 393.022 144.555C393.238 144.793 393.503 144.982 393.798 145.108C394.736 145.527 395.63 146.039 396.465 146.637C397.305 147.249 397.859 148.177 397.999 149.206C398.014 149.959 397.851 150.705 397.524 151.384C394.286 159.328 386.392 164.373 377.818 163.978C377.081 163.944 376.284 163.843 375.752 163.334C375.442 162.984 375.196 162.582 375.029 162.145C373.512 158.962 370.671 156.61 368.845 153.583C367.764 151.78 367.072 149.764 365.947 147.987C364.274 145.287 361.681 143.279 359.153 141.367C357.724 140.279 356.133 139.138 354.334 139.212C352.734 139.281 351.566 139.368 352.155 137.404C352.637 135.984 353.613 134.784 354.904 134.02Z" fill="black"/>
<path d="M346.22 350.177C347.304 351.205 348.795 351.656 350.239 351.978C353.529 352.711 356.893 352.971 360.249 353.236L363.518 353.492C366.708 353.735 369.903 353.986 373.107 354C377.061 354.014 381.007 353.667 384.899 352.962C385.216 352.996 385.53 352.873 385.743 352.632C385.957 352.392 386.044 352.061 385.979 351.744C385.912 347.685 385.426 343.644 384.531 339.688C384.158 338.064 381.297 341.706 381.171 341.86C380.378 342.778 379.775 343.184 378.57 343.264C375.279 343.449 371.59 341.41 368.976 339.6C368.416 339.174 367.822 338.799 367.198 338.479C366.744 338.261 366.26 338.112 365.763 338.037C364.068 337.878 362.365 338.23 360.864 339.048C358.901 340.041 357.175 341.467 355.229 342.487C353.648 343.317 351.94 343.868 350.178 344.116C348.396 344.367 346.276 344.487 345.353 346.058C344.594 347.374 345.14 349.139 346.22 350.177Z" fill="#3F3D56"/>
<path d="M346.453 350.303C347.543 351.297 349.041 351.733 350.492 352.044C353.799 352.753 357.18 353.005 360.553 353.261L363.838 353.509C367.045 353.743 370.256 353.987 373.476 354C377.449 354.014 381.415 353.678 385.327 352.996C385.687 352.987 386.028 352.833 386.268 352.57C386.407 352.356 387.004 351.507 387 351.255C386.935 347.332 385.85 343.417 384.952 339.597C384.577 338.026 381.702 341.547 381.575 341.697C380.778 342.585 380.172 342.977 378.961 343.054C375.654 343.234 371.946 341.261 369.319 339.511C368.757 339.099 368.159 338.737 367.533 338.427C367.076 338.216 366.59 338.072 366.09 338C366.526 340.331 369.929 343.148 371.689 344.006C375.253 345.739 379.488 344.86 383.453 345.078C383.744 345.07 384.032 345.139 384.286 345.278C384.765 345.586 384.791 346.247 384.778 346.807C384.743 347.737 384.621 348.826 383.802 349.3C383.395 349.492 382.946 349.584 382.495 349.569C372.694 349.991 362.875 349.654 353.128 348.561C351.486 348.454 349.87 348.103 348.336 347.519C347.334 347.061 346.401 346.473 345.56 345.769C344.323 346.738 345.368 349.308 346.453 350.303Z" fill="#E8EAF2"/>
<path d="M354.524 112.815C354.579 114.366 353.546 117.373 356.382 116.534C358.082 116.03 358.55 113.983 360.697 114.44C362.844 114.896 363.337 117.599 364.064 119.368C365.265 122.222 367.765 124.288 370.747 124.891C371.352 125.036 371.982 125.036 372.588 124.891C373.974 124.487 374.764 123.027 375.33 121.675C375.817 120.53 376.222 119.351 376.541 118.146C376.758 117.292 376.9 116.419 376.967 115.539C377.011 114.943 377.011 114.345 376.967 113.749C376.707 110.225 374.747 107.009 372.231 104.575C369.714 102.142 366.666 100.391 363.652 98.6567C362.667 98.0276 361.601 97.5421 360.484 97.214C359.385 96.9873 358.257 96.9403 357.143 97.075C355.675 97.1354 354.232 97.482 352.892 98.0962C352.342 98.3739 351.838 98.7359 351.395 99.1695C350.772 99.7674 350.33 100.535 350.12 101.381C349.576 103.663 350.996 105.727 352.152 107.513C353.176 109.121 354.448 110.82 354.524 112.815Z" fill="#3F3D56"/>
<path opacity="0.1" d="M306 146C306.715 144.517 309.713 140.412 308.843 139C307.945 140.054 307.182 141.182 306.565 142.366C306 143.514 306.46 145.054 306 146Z" fill="black"/>
<path opacity="0.1" d="M352.184 107.612C351.013 105.818 349.57 103.777 350.121 101.512C350.395 100.516 350.981 99.6351 351.792 99C351.601 99.3316 351.456 99.688 351.361 100.059C350.81 102.325 352.253 104.382 353.424 106.159C354.462 107.75 355.75 109.44 355.827 111.425C355.883 112.964 354.832 115.96 357.709 115.125C359.432 114.628 359.906 112.588 362.08 113.046C364.255 113.504 364.75 116.185 365.487 117.944C366.709 120.786 369.248 122.842 372.274 123.439C372.887 123.584 373.525 123.584 374.139 123.439C374.449 123.346 374.74 123.2 375 123.006C374.561 123.888 373.799 124.564 372.873 124.891C372.259 125.036 371.621 125.036 371.008 124.891C367.991 124.287 365.464 122.232 364.247 119.397C363.51 117.637 363.032 114.957 360.84 114.494C358.648 114.032 358.183 116.081 356.469 116.578C353.592 117.412 354.643 114.416 354.587 112.877C354.514 110.893 353.222 109.203 352.184 107.612Z" fill="black"/>
<path opacity="0.1" d="M351.956 104.389C352.221 104.825 352.511 105.246 352.824 105.649C353.438 106.416 354.123 107.122 354.871 107.759C355.305 108.144 355.778 108.502 356.255 108.838C357.144 109.459 358.078 110.015 359.049 110.5C361.881 111.92 364.944 112.809 367.993 113.685L373.971 115.411C374.704 115.963 376.049 116.96 377.532 118C377.753 117.151 377.898 116.285 377.966 115.411C378.011 114.819 378.011 114.225 377.966 113.633C377.701 110.133 375.702 106.94 373.134 104.523C370.566 102.106 367.455 100.367 364.38 98.6453C363.375 98.0205 362.287 97.5383 361.148 97.2125C360.026 96.9874 358.875 96.9407 357.739 97.0744C356.241 97.1345 354.769 97.4787 353.401 98.0886C352.84 98.3644 352.325 98.7239 351.874 99.1545C351.534 99.6488 351.275 100.193 351.106 100.768C350.768 101.994 351.288 103.306 351.956 104.389Z" fill="black"/>
<path d="M351.934 104.072C352.196 104.502 352.482 104.918 352.792 105.316C353.399 106.072 354.077 106.769 354.816 107.398C355.245 107.777 355.713 108.131 356.185 108.463C357.064 109.076 357.988 109.624 358.948 110.103C361.749 111.504 364.778 112.381 367.793 113.25L373.705 114.953C375.768 116.503 382.671 121.58 383.833 120.945C385.202 120.2 377.707 114.932 377.707 114.932L377.36 115.192C378.458 114.506 379.033 112.918 379.282 111.546C379.711 109.089 379.925 106.534 379.337 104.106C378.75 101.679 377.282 99.3661 375.047 98.229C374.052 97.7222 372.847 97.3772 372.13 96.5979C372.022 96.4826 371.927 96.3554 371.847 96.2188C371.806 96.1545 371.769 96.0876 371.736 96.0187C371.658 95.8044 371.553 95.6011 371.423 95.4139C370.994 94.9412 370.264 95.0817 369.642 95.1584L369.445 95.1797C369.333 95.1797 369.222 95.1797 369.11 95.1797C366.888 95.2308 364.735 94 362.487 94C360.02 94 357.927 95.4139 355.756 96.3807C355.327 96.5766 354.898 96.7554 354.512 96.9386C352.946 97.6626 351.766 98.4334 351.119 100.495C350.758 101.708 351.273 103.003 351.934 104.072Z" fill="#3B50E1"/>
<path opacity="0.1" d="M369.13 95.0497C368.894 95.5454 368.987 96.1773 369.35 96.5412C369.612 96.7673 369.919 96.9015 370.239 96.9289C370.468 96.9655 370.698 96.9871 370.928 96.9936C371.241 97.0221 371.555 96.9555 371.841 96.7997C371.898 96.7659 371.951 96.7242 372 96.6754C371.897 96.5408 371.807 96.3924 371.731 96.2329C371.678 96.2826 371.625 96.2727 371.413 96.2329C371.028 96.2084 370.646 96.1283 370.276 95.9943C369.874 95.8728 369.56 95.4901 369.46 95L369.13 95.0497Z" fill="black"/>
<path opacity="0.1" d="M378 115.063C377.668 115.419 377.297 115.658 376.911 115.764C376.634 115.89 376.35 115.969 376.064 116C375.34 115.945 374.634 115.603 374 115L378 115.063Z" fill="black"/>
<path fill-rule="evenodd" clip-rule="evenodd" d="M190.83 161.96L190.268 160.724L190.043 160.785L190.631 162.017L194.867 170.944L194.848 170.967C194.668 171.192 193.529 172.618 193.57 173.97C193.571 174.189 193.608 174.406 193.678 174.614C193.894 175.245 194.162 175.5 194.404 175.569V175.461C194.392 175.317 194.392 175.173 194.404 175.029C194.402 175.01 194.402 174.991 194.404 174.973V174.912C194.406 174.901 194.406 174.889 194.404 174.877V174.856C194.402 174.844 194.402 174.833 194.404 174.821C194.402 174.804 194.402 174.787 194.404 174.769C194.409 174.736 194.416 174.703 194.426 174.67C194.424 174.659 194.424 174.647 194.426 174.635V174.592L194.478 174.406L194.499 174.354L194.525 174.259L194.539 174.221L194.539 174.221C194.556 174.172 194.574 174.121 194.594 174.073C194.603 174.044 194.615 174.015 194.629 173.987L194.681 173.866C194.718 173.78 194.759 173.695 194.8 173.612C194.817 173.578 194.833 173.545 194.849 173.511C194.906 173.395 194.966 173.295 195.027 173.196C195.198 172.91 195.389 172.635 195.597 172.374L190.83 161.96ZM195.601 177.056L195.562 177.112L195.472 177.29C195.39 177.453 195.328 177.626 195.286 177.804M195.284 177.824L195.284 177.823C195.284 177.817 195.285 177.81 195.286 177.804L195.284 177.824ZM195.284 177.824C195.285 177.826 195.285 177.828 195.285 177.831C195.285 177.829 195.285 177.827 195.284 177.824M195.284 177.824C195.285 177.829 195.285 177.833 195.286 177.837L195.284 177.824ZM195.286 177.837L195.286 177.839C195.284 177.848 195.284 177.856 195.285 177.865C195.284 177.86 195.284 177.855 195.284 177.85C195.284 177.848 195.285 177.846 195.285 177.845C195.284 177.854 195.284 177.864 195.286 177.873C195.29 177.881 195.29 177.891 195.286 177.899C195.177 177.738 195.038 177.6 194.875 177.493C194.611 177.336 194.459 177.043 194.482 176.736C194.486 176.564 194.518 176.393 194.577 176.231C194.65 176.412 194.756 176.579 194.888 176.723L194.953 176.784C195.006 176.83 195.065 176.866 195.13 176.892C195.156 176.903 195.182 176.911 195.208 176.918H195.251C195.338 176.94 195.428 176.94 195.515 176.918H195.541C195.621 176.889 195.695 176.846 195.761 176.793L195.696 176.896L195.658 176.957C195.636 176.988 195.617 177.022 195.601 177.056" fill="url(#paint23_linear)"/>
<path d="M212.371 325.432C212.371 325.432 218.806 326.25 221.907 325.139C225.009 324.028 220.946 329.916 216.729 331.311C213.748 332.211 210.676 332.751 207.574 332.92L202.615 328.089L197.351 328.507L198.269 333.84L196.635 334L196 327.005L212.371 325.432Z" fill="#444053"/>
<path opacity="0.1" d="M212.371 325.432C212.371 325.432 218.806 326.25 221.907 325.139C225.009 324.028 220.946 329.916 216.729 331.311C213.748 332.211 210.676 332.751 207.574 332.92L202.615 328.089L197.351 328.507L198.269 333.84L196.635 334L196 327.005L212.371 325.432Z" fill="black"/>
<path d="M222.089 337C222.089 337 229.808 338.63 233.699 337.713C237.591 336.797 232.009 343.017 226.72 344.137C221.431 345.256 215.403 344.966 215.403 344.966L209.929 338.932L203.479 338.829L204.008 344.987H202V337H222.089Z" fill="#444053"/>
<path opacity="0.1" d="M222.089 337C222.089 337 229.808 338.63 233.699 337.713C237.591 336.797 232.009 343.017 226.72 344.137C221.431 345.256 215.403 344.966 215.403 344.966L209.929 338.932L203.479 338.829L204.008 344.987H202V337H222.089Z" fill="black"/>
<path d="M192.802 190C192.802 190 179.618 204.789 187.527 221.496C187.527 221.496 187.956 224.477 187.634 225.009C187.312 225.541 188.899 232.456 188.899 232.456C188.899 232.456 189.114 245.004 188.899 247.141C188.685 249.279 188.47 250.438 188.47 250.438C188.47 250.438 185.524 273.618 186.472 280.541C187.42 287.464 187.844 299.8 187.844 299.8L191.747 333L212 329.171L202.821 283.626L202.504 275.539C202.504 275.539 206.304 265.643 204.614 260.641C202.924 255.639 205.043 191.9 205.043 191.9L192.802 190Z" fill="#303D5C"/>
<path opacity="0.05" d="M192.802 190C192.802 190 179.618 204.789 187.527 221.496C187.527 221.496 187.956 224.477 187.634 225.009C187.312 225.541 188.899 232.456 188.899 232.456C188.899 232.456 189.114 245.004 188.899 247.141C188.685 249.279 188.47 250.438 188.47 250.438C188.47 250.438 185.524 273.618 186.472 280.541C187.42 287.464 187.844 299.8 187.844 299.8L191.747 333L212 329.171L202.821 283.626L202.504 275.539C202.504 275.539 206.304 265.643 204.614 260.641C202.924 255.639 205.043 191.9 205.043 191.9L192.802 190Z" fill="black"/>
<path d="M202.885 260.925C205.229 265.394 203.751 276.243 203.751 276.243C200.662 278.904 202.365 302.096 202.365 302.096C202.365 302.096 200.234 324.972 198.852 327.619C197.47 330.267 197.678 341.238 197.678 341.238C213.339 344.11 223.567 337.941 223.567 337.941C223.567 337.941 218.559 326.555 218.455 326.027C218.394 325.729 217.731 326.538 217.532 326.771C217.636 326.629 217.909 326.257 218.455 325.474C220.586 322.493 218.455 316.748 218.455 316.748C218.455 316.748 221.119 298.237 219.841 296.532C218.563 294.828 220.053 288.555 220.799 287.067C221.544 285.579 222.501 282.066 222.501 280.578C222.563 279.421 222.779 278.278 223.142 277.178C226.444 272.493 225.807 264.728 225.807 264.728C225.807 264.728 225.594 253.558 227.509 244.728C229.424 235.899 225.118 210.895 225.118 210.895C225.118 210.895 226.552 206.002 225.486 204.194C225.005 203.38 225.053 201.464 225.278 199.608C225.538 197.337 226.019 195.152 226.019 195.152L196.954 190C196.343 191.017 195.784 192.003 195.269 192.95C185.656 210.687 192.137 217.28 192.137 217.28L198.306 236.267C198.306 236.267 200.532 256.461 202.885 260.925Z" fill="#303D5C"/>
<path d="M249 122.429L253.284 126C253.284 126 254.124 125.342 255.249 124.355C257.929 121.978 262.271 117.674 260.645 115.849C258.412 113.358 256.178 114.972 256.04 115.086C256.281 114.836 261.253 109.603 259.216 110.024C257.179 110.445 253.284 114.99 253.284 114.99L250.206 120.328L249 122.429Z" fill="#EFB7B9"/>
<path d="M193.093 180L198 181.492L194.269 188L190 182.451L193.093 180Z" fill="#EFB7B9"/>
<path d="M205 119C212.732 119 219 112.732 219 105C219 97.268 212.732 91 205 91C197.268 91 191 97.268 191 105C191 112.732 197.268 119 205 119Z" fill="#EFB7B9"/>
<path d="M213.632 110.034C213.632 110.034 200.837 130.242 212.985 131.982C225.133 133.723 196.645 146 196.645 146L186 135.302C186 135.302 197.073 116.255 195.355 108.981C193.637 101.707 213.632 110.034 213.632 110.034Z" fill="#EFB7B9"/>
<path opacity="0.1" d="M195 192.93C197.839 193.776 200.732 194.435 203.661 194.902C203.661 194.902 219.488 201.814 225.253 199.541C225.515 197.286 226 195.117 226 195.117L196.699 190C196.083 191.01 195.515 191.989 195 192.93Z" fill="black"/>
<path d="M181.157 140.961L183.958 146.839L187.122 153.459L187.55 154.404L191.3 162.646L196.067 173.091C196.067 173.091 194.383 175.117 194.909 176.718C195.4 178.214 196.17 177.564 196.268 177.472C196.179 177.598 195.161 178.986 196.067 179.598C196.974 180.21 196.696 181.624 196.696 181.624C196.696 181.624 192.805 188.13 192.069 190.477C191.334 192.824 203.849 194.854 203.849 194.854C203.849 194.854 221.62 202.853 226.037 198.905C230.454 194.958 226.037 176.397 226.037 176.397C226.037 176.397 226.037 165.73 224.878 164.771C223.719 163.813 224.271 156.417 224.271 156.417C227.32 150.778 225.216 147.563 225.216 147.563L226.071 133.058C226.071 133.058 224.703 131.561 223.651 131.457C222.987 131.393 222.318 131.393 221.654 131.457C221.654 131.457 221.098 131.266 220.299 131.024C218.614 130.538 215.818 129.865 214.817 130.373C213.346 131.119 203.884 129.197 203.884 129.197C199.805 128.585 195.697 128.194 191.578 128.026C190.171 127.933 188.759 128.089 187.404 128.486C183.984 129.557 183.377 132.078 183.377 132.078C183.377 132.078 183.804 134.212 182.115 136.984C180.426 139.755 181.157 140.961 181.157 140.961Z" fill="#3B50E1"/>
<path opacity="0.1" d="M249 122.23L253.096 126C253.096 126 253.899 125.305 254.976 124.263C255.3 120.419 252.281 119.91 250.153 120.011L249 122.23Z" fill="black"/>
<path d="M224.55 132.805L226.381 132.912C226.381 132.912 230.685 133.432 232.073 132.174C233.461 130.916 238.427 130.499 238.427 130.499C238.427 130.499 239.828 127.77 241.334 126.934C242.84 126.098 246.505 124.521 246.588 123.681C246.672 122.841 247.99 121.271 247.99 121.271C247.99 121.271 256.064 119.383 254.882 125.569C253.7 131.756 247.162 137.099 247.162 137.099C247.162 137.099 246.409 140.561 243.931 141.401C241.452 142.241 225.409 149.579 222.825 147.69C220.242 145.802 224.55 132.805 224.55 132.805Z" fill="#3B50E1"/>
<path opacity="0.1" d="M182.096 136.921C183.777 134.145 183.358 132.007 183.358 132.007C183.358 132.007 183.965 129.482 187.388 128.408C188.055 128.203 188.742 128.066 189.437 128C186.066 129.086 185.462 131.581 185.462 131.581C185.462 131.581 185.89 133.719 184.2 136.495C182.511 139.272 183.251 140.45 183.251 140.45L186.057 146.338L189.219 152.965L189.672 153.917L193.424 162.151L198.194 172.615C198.194 172.615 196.508 174.649 197.035 176.252C197.526 177.752 198.297 177.096 198.395 177.009C198.305 177.13 197.287 178.525 198.194 179.138C199.101 179.751 198.823 181.167 198.823 181.167C198.823 181.167 194.93 187.686 194.194 190.036C193.458 192.387 205.98 194.417 205.98 194.417C205.98 194.417 218.326 199.983 225 199.549C219.327 201.808 203.875 194.847 203.875 194.847C203.875 194.847 191.353 192.813 192.089 190.462C192.825 188.111 196.718 181.597 196.718 181.597C196.718 181.597 197.035 180.207 196.089 179.568C195.144 178.929 196.2 177.565 196.29 177.439C196.192 177.53 195.435 178.182 194.93 176.683C194.404 175.079 196.089 173.05 196.089 173.05L191.319 162.582L187.567 154.325L187.139 153.378L183.974 146.747L181.172 140.858C181.172 140.858 180.41 139.702 182.096 136.921Z" fill="black"/>
<path d="M182.419 139L180.536 140.603C180.195 141.656 179.661 142.635 178.964 143.487C177.916 144.664 175.087 156.304 175.087 156.304C175.328 156.848 175.328 157.472 175.087 158.015C174.661 158.884 175.939 160.152 175.939 160.152C175.939 160.152 176.565 159.94 175.513 161.112C174.461 162.285 176.459 163.684 176.459 163.684C176.459 163.684 185.048 178.629 186.829 180.232C188.609 181.835 190.39 186 190.39 186C190.39 186 194.122 180.032 195 179.919L191.336 171.484C191.336 171.484 188.818 159.731 186.935 157.585C185.052 155.44 187.877 148.073 187.877 148.073L182.419 139Z" fill="#3B50E1"/>
<path opacity="0.1" d="M181.346 161.1C182.937 163.026 185.727 163.434 188.194 163.152C188.555 163.109 188.921 163.052 189.277 162.983C189.818 162.885 190.353 162.759 190.881 162.605C192.77 162.056 194.548 161.175 196.134 160.003C196.48 159.701 196.88 159.469 197.312 159.317C198.3 159.066 199.28 159.808 199.818 160.675C200.355 161.543 200.609 162.566 201.159 163.425C202.242 165.13 204.34 165.95 206.352 165.997C208.363 166.045 210.315 165.438 212.232 164.835C210.68 162.909 209.09 160.905 208.458 158.506C208.107 156.942 208.007 155.331 208.161 153.735C208.617 146.188 211.214 138.232 217.313 133.834C218.371 133.075 219.648 132.177 220 131.023C218.306 130.538 215.495 129.865 214.489 130.373C213.01 131.119 203.497 129.197 203.497 129.197C199.397 128.585 195.267 128.194 191.126 128.026C189.711 127.933 188.292 128.089 186.93 128.486C187.45 131.691 187.902 134.88 187.278 138.029C186.846 139.991 186.141 141.882 185.185 143.646C184.643 144.708 184.059 145.754 183.466 146.804C181.858 149.723 180.323 152.651 180.027 155.912C179.902 157.756 180.194 159.704 181.346 161.1Z" fill="black"/>
<path opacity="0.1" d="M202.326 175.309C201.501 175.226 200.668 175.011 199.851 175.144C199.157 175.303 198.523 175.588 198 175.975L203.43 175.999C204.826 175.999 206.93 176.065 208 175.303C207.021 174.554 203.722 175.448 202.326 175.309Z" fill="black"/>
<path d="M221.436 102.906C223.111 105.23 223.467 108.263 222.376 110.916C221.517 112.971 219.83 114.58 218.803 116.561C217.225 119.686 217.355 123.409 219.147 126.414C219.547 126.94 219.839 127.542 220.006 128.183C220.251 129.805 218.584 130.969 217.258 131.925C211.16 136.302 208.57 144.239 208.115 151.77C207.959 153.361 208.057 154.967 208.407 156.527C209.038 158.919 210.632 160.918 212.182 162.838C210.267 163.439 208.317 164.045 206.303 163.997C204.289 163.95 202.202 163.132 201.116 161.432C200.566 160.567 200.308 159.555 199.776 158.69C199.243 157.825 198.26 157.09 197.281 157.336C196.847 157.482 196.446 157.713 196.1 158.015C193.769 159.737 191.035 160.821 188.164 161.16C185.699 161.445 182.913 161.034 181.328 159.114C180.177 157.717 179.881 155.779 180.04 153.971C180.589 147.531 186.004 142.466 187.258 136.125C188.272 130.986 186.434 125.744 186.099 120.527C185.596 112.798 188.383 105.276 191.127 98.0354C191.725 96.2412 192.532 94.5249 193.532 92.9228C195.829 89.5317 199.802 87.4987 203.838 87.0922C205.336 86.8829 206.861 87.0311 208.291 87.5247C209.734 88.087 210.936 89.1337 212.109 90.1588C214.728 92.447 217.421 94.8303 218.928 97.9791C219.542 99.2767 219.946 100.648 220.646 101.898L221.436 102.906Z" fill="#3F3D56"/>
<g opacity="0.1">
<path d="M218.558 100.289C217.87 99.0458 217.47 97.6688 216.838 96.3908C216.251 95.1989 215.514 94.0869 214.645 93.0818C216.222 94.5496 217.531 96.2809 218.515 98.1981C219.113 99.4373 219.513 100.78 220.162 101.989L219.328 101.283C219.546 101.573 219.742 101.88 219.913 102.2C219.384 101.622 218.929 100.98 218.558 100.289Z" fill="black"/>
<path d="M186.033 159.219C188.908 158.886 191.647 157.81 193.979 156.095C194.327 155.796 194.728 155.567 195.162 155.42C196.147 155.17 197.127 155.906 197.664 156.767C197.776 156.947 197.875 157.141 197.97 157.335C197.621 157.176 197.229 157.138 196.856 157.227C196.421 157.372 196.02 157.602 195.674 157.903C193.34 159.616 190.602 160.693 187.727 161.031C185.259 161.315 182.468 160.906 180.882 158.996C180.684 158.749 180.508 158.486 180.357 158.208C181.957 159.237 184.094 159.443 186.033 159.219Z" fill="black"/>
<path d="M204.2 162.051C206.208 162.098 208.165 161.496 210.083 160.898C208.53 158.987 206.939 156.999 206.307 154.619C205.956 153.068 205.856 151.47 206.011 149.886C206.466 142.394 209.064 134.498 215.17 130.144C216.498 129.193 218.18 128.035 217.922 126.417C217.752 125.782 217.46 125.185 217.062 124.662C215.265 121.673 215.134 117.969 216.713 114.859C217.745 112.889 219.422 111.288 220.295 109.24C221.237 106.955 221.104 104.368 219.934 102.191C220.225 102.498 220.535 102.785 220.863 103.052C221.098 103.381 221.353 103.694 221.628 103.99C222.799 106.168 222.93 108.757 221.985 111.043C221.125 113.087 219.435 114.687 218.408 116.658C216.827 119.767 216.957 123.471 218.752 126.46C219.153 126.984 219.445 127.582 219.612 128.22C219.857 129.834 218.188 130.991 216.86 131.942C210.754 136.297 208.161 144.193 207.705 151.685C207.548 153.268 207.647 154.866 207.997 156.418C208.629 158.798 210.225 160.786 211.777 162.696C209.859 163.294 207.907 163.897 205.89 163.849C203.874 163.802 201.784 162.989 200.696 161.298C200.623 161.186 200.558 161.07 200.494 160.953C201.606 161.65 202.888 162.029 204.2 162.051Z" fill="black"/>
</g>
<path opacity="0.2" d="M140 64V73H101C102.189 71.3486 103.404 69.72 104.644 68.1143C104.815 67.8914 104.986 67.6857 105.166 67.45L106.992 65.1486L107.245 64.8357L107.908 64.0257L140 64Z" fill="#3B50E1"/>
<rect opacity="0.2" x="181" y="64" width="41" height="9" fill="#3B50E1"/>
<rect opacity="0.2" x="276" y="64" width="41" height="9" fill="#3B50E1"/>
<rect opacity="0.2" x="356" y="64" width="41" height="9" fill="#3B50E1"/>
<defs>
<linearGradient id="paint0_linear" x1="106" y1="112" x2="106" y2="93" gradientUnits="userSpaceOnUse">
<stop stop-color="#808080" stop-opacity="0.25"/>
<stop offset="0.54" stop-color="#808080" stop-opacity="0.12"/>
<stop offset="1" stop-color="#808080" stop-opacity="0.1"/>
</linearGradient>
<linearGradient id="paint1_linear" x1="186.004" y1="107.004" x2="186.004" y2="88" gradientUnits="userSpaceOnUse">
<stop stop-color="#808080" stop-opacity="0.25"/>
<stop offset="0.54" stop-color="#808080" stop-opacity="0.12"/>
<stop offset="1" stop-color="#808080" stop-opacity="0.1"/>
</linearGradient>
<linearGradient id="paint2_linear" x1="276.004" y1="144.004" x2="276.004" y2="125" gradientUnits="userSpaceOnUse">
<stop stop-color="#808080" stop-opacity="0.25"/>
<stop offset="0.54" stop-color="#808080" stop-opacity="0.12"/>
<stop offset="1" stop-color="#808080" stop-opacity="0.1"/>
</linearGradient>
<linearGradient id="paint3_linear" x1="367.998" y1="157" x2="367.998" y2="138" gradientUnits="userSpaceOnUse">
<stop stop-color="#808080" stop-opacity="0.25"/>
<stop offset="0.54" stop-color="#808080" stop-opacity="0.12"/>
<stop offset="1" stop-color="#808080" stop-opacity="0.1"/>
</linearGradient>
<linearGradient id="paint4_linear" x1="393.002" y1="169" x2="393.002" y2="150" gradientUnits="userSpaceOnUse">
<stop stop-color="#808080" stop-opacity="0.25"/>
<stop offset="0.54" stop-color="#808080" stop-opacity="0.12"/>
<stop offset="1" stop-color="#808080" stop-opacity="0.1"/>
</linearGradient>
<linearGradient id="paint5_linear" x1="424" y1="136.004" x2="424" y2="117" gradientUnits="userSpaceOnUse">
<stop stop-color="#808080" stop-opacity="0.25"/>
<stop offset="0.54" stop-color="#808080" stop-opacity="0.12"/>
<stop offset="1" stop-color="#808080" stop-opacity="0.1"/>
</linearGradient>
<linearGradient id="paint6_linear" x1="417.998" y1="163" x2="417.998" y2="144" gradientUnits="userSpaceOnUse">
<stop stop-color="#808080" stop-opacity="0.25"/>
<stop offset="0.54" stop-color="#808080" stop-opacity="0.12"/>
<stop offset="1" stop-color="#808080" stop-opacity="0.1"/>
</linearGradient>
<linearGradient id="paint7_linear" x1="214.004" y1="107.004" x2="214.004" y2="88" gradientUnits="userSpaceOnUse">
<stop stop-color="#808080" stop-opacity="0.25"/>
<stop offset="0.54" stop-color="#808080" stop-opacity="0.12"/>
<stop offset="1" stop-color="#808080" stop-opacity="0.1"/>
</linearGradient>
<linearGradient id="paint8_linear" x1="120" y1="153.004" x2="120" y2="134" gradientUnits="userSpaceOnUse">
<stop stop-color="#808080" stop-opacity="0.25"/>
<stop offset="0.54" stop-color="#808080" stop-opacity="0.12"/>
<stop offset="1" stop-color="#808080" stop-opacity="0.1"/>
</linearGradient>
<linearGradient id="paint9_linear" x1="201.002" y1="134" x2="201.002" y2="115" gradientUnits="userSpaceOnUse">
<stop stop-color="#808080" stop-opacity="0.25"/>
<stop offset="0.54" stop-color="#808080" stop-opacity="0.12"/>
<stop offset="1" stop-color="#808080" stop-opacity="0.1"/>
</linearGradient>
<linearGradient id="paint10_linear" x1="304.998" y1="123" x2="304.998" y2="104" gradientUnits="userSpaceOnUse">
<stop stop-color="#808080" stop-opacity="0.25"/>
<stop offset="0.54" stop-color="#808080" stop-opacity="0.12"/>
<stop offset="1" stop-color="#808080" stop-opacity="0.1"/>
</linearGradient>
<linearGradient id="paint11_linear" x1="410.002" y1="109" x2="410.002" y2="90" gradientUnits="userSpaceOnUse">
<stop stop-color="#808080" stop-opacity="0.25"/>
<stop offset="0.54" stop-color="#808080" stop-opacity="0.12"/>
<stop offset="1" stop-color="#808080" stop-opacity="0.1"/>
</linearGradient>
<linearGradient id="paint12_linear" x1="331" y1="107.004" x2="331" y2="88" gradientUnits="userSpaceOnUse">
<stop stop-color="#808080" stop-opacity="0.25"/>
<stop offset="0.54" stop-color="#808080" stop-opacity="0.12"/>
<stop offset="1" stop-color="#808080" stop-opacity="0.1"/>
</linearGradient>
<linearGradient id="paint13_linear" x1="330.004" y1="144.004" x2="330.004" y2="125" gradientUnits="userSpaceOnUse">
<stop stop-color="#808080" stop-opacity="0.25"/>
<stop offset="0.54" stop-color="#808080" stop-opacity="0.12"/>
<stop offset="1" stop-color="#808080" stop-opacity="0.1"/>
</linearGradient>
<linearGradient id="paint14_linear" x1="240.002" y1="116" x2="240.002" y2="97" gradientUnits="userSpaceOnUse">
<stop stop-color="#808080" stop-opacity="0.25"/>
<stop offset="0.54" stop-color="#808080" stop-opacity="0.12"/>
<stop offset="1" stop-color="#808080" stop-opacity="0.1"/>
</linearGradient>
<linearGradient id="paint15_linear" x1="134.002" y1="122" x2="134.002" y2="103" gradientUnits="userSpaceOnUse">
<stop stop-color="#808080" stop-opacity="0.25"/>
<stop offset="0.54" stop-color="#808080" stop-opacity="0.12"/>
<stop offset="1" stop-color="#808080" stop-opacity="0.1"/>
</linearGradient>
<linearGradient id="paint16_linear" x1="144" y1="144.004" x2="144" y2="125" gradientUnits="userSpaceOnUse">
<stop stop-color="#808080" stop-opacity="0.25"/>
<stop offset="0.54" stop-color="#808080" stop-opacity="0.12"/>
<stop offset="1" stop-color="#808080" stop-opacity="0.1"/>
</linearGradient>
<linearGradient id="paint17_linear" x1="226.998" y1="147" x2="226.998" y2="128" gradientUnits="userSpaceOnUse">
<stop stop-color="#808080" stop-opacity="0.25"/>
<stop offset="0.54" stop-color="#808080" stop-opacity="0.12"/>
<stop offset="1" stop-color="#808080" stop-opacity="0.1"/>
</linearGradient>
<linearGradient id="paint18_linear" x1="373.002" y1="109" x2="373.002" y2="90" gradientUnits="userSpaceOnUse">
<stop stop-color="#808080" stop-opacity="0.25"/>
<stop offset="0.54" stop-color="#808080" stop-opacity="0.12"/>
<stop offset="1" stop-color="#808080" stop-opacity="0.1"/>
</linearGradient>
<linearGradient id="paint19_linear" x1="391.004" y1="136.004" x2="391.004" y2="117" gradientUnits="userSpaceOnUse">
<stop stop-color="#808080" stop-opacity="0.25"/>
<stop offset="0.54" stop-color="#808080" stop-opacity="0.12"/>
<stop offset="1" stop-color="#808080" stop-opacity="0.1"/>
</linearGradient>
<linearGradient id="paint20_linear" x1="278.004" y1="107.004" x2="278.004" y2="88" gradientUnits="userSpaceOnUse">
<stop stop-color="#808080" stop-opacity="0.25"/>
<stop offset="0.54" stop-color="#808080" stop-opacity="0.12"/>
<stop offset="1" stop-color="#808080" stop-opacity="0.1"/>
</linearGradient>
<linearGradient id="paint21_linear" x1="301.998" y1="163" x2="301.998" y2="144" gradientUnits="userSpaceOnUse">
<stop stop-color="#808080" stop-opacity="0.25"/>
<stop offset="0.54" stop-color="#808080" stop-opacity="0.12"/>
<stop offset="1" stop-color="#808080" stop-opacity="0.1"/>
</linearGradient>
<linearGradient id="paint22_linear" x1="397.007" y1="354.043" x2="397.007" y2="92.987" gradientUnits="userSpaceOnUse">
<stop stop-color="#808080" stop-opacity="0.25"/>
<stop offset="0.54" stop-color="#808080" stop-opacity="0.12"/>
<stop offset="1" stop-color="#808080" stop-opacity="0.1"/>
</linearGradient>
<linearGradient id="paint23_linear" x1="259.966" y1="345.004" x2="259.966" y2="84.9768" gradientUnits="userSpaceOnUse">
<stop stop-color="#808080" stop-opacity="0.25"/>
<stop offset="0.54" stop-color="#808080" stop-opacity="0.12"/>
<stop offset="1" stop-color="#808080" stop-opacity="0.1"/>
</linearGradient>
</defs>
</svg>
