<svg width="78" height="44" viewBox="0 0 78 44" fill="none" xmlns="http://www.w3.org/2000/svg">
<path d="M6.86466 9.252V24.57H7.69266C7.99266 24.57 8.22666 24.534 8.39466 24.462C8.57466 24.378 8.75466 24.216 8.93466 23.976L13.5247 18.306C13.7167 18.054 13.9267 17.862 14.1547 17.73C14.3947 17.598 14.7007 17.532 15.0727 17.532H19.1407L13.3987 24.39C12.9907 24.93 12.5467 25.344 12.0667 25.632C12.3187 25.812 12.5407 26.022 12.7327 26.262C12.9367 26.502 13.1287 26.76 13.3087 27.036L19.4647 36H15.4507C15.1027 36 14.8027 35.946 14.5507 35.838C14.2987 35.718 14.0887 35.508 13.9207 35.208L9.20466 28.206C9.03666 27.93 8.86266 27.75 8.68266 27.666C8.50266 27.582 8.23266 27.54 7.87266 27.54H6.86466V36H2.41866V9.252H6.86466Z" fill="#3B50E1"/>
<path d="M39.1751 17.532L29.1131 41.076C28.9811 41.388 28.8071 41.622 28.5911 41.778C28.3871 41.946 28.0691 42.03 27.6371 42.03H24.3251L27.7811 34.614L20.3111 17.532H24.2171C24.5651 17.532 24.8351 17.616 25.0271 17.784C25.2311 17.952 25.3811 18.144 25.4771 18.36L29.4011 27.936C29.5331 28.26 29.6411 28.584 29.7251 28.908C29.8211 29.232 29.9111 29.562 29.9951 29.898C30.1031 29.562 30.2111 29.232 30.3191 28.908C30.4271 28.572 30.5471 28.242 30.6791 27.918L34.3871 18.36C34.4831 18.12 34.6391 17.922 34.8551 17.766C35.0831 17.61 35.3351 17.532 35.6111 17.532H39.1751ZM46.14 20.736C46.716 19.632 47.4 18.768 48.192 18.144C48.984 17.508 49.92 17.19 51 17.19C51.852 17.19 52.536 17.376 53.052 17.748L52.764 21.078C52.704 21.294 52.614 21.45 52.494 21.546C52.386 21.63 52.236 21.672 52.044 21.672C51.864 21.672 51.594 21.642 51.234 21.582C50.886 21.522 50.544 21.492 50.208 21.492C49.716 21.492 49.278 21.564 48.894 21.708C48.51 21.852 48.162 22.062 47.85 22.338C47.55 22.602 47.28 22.926 47.04 23.31C46.812 23.694 46.596 24.132 46.392 24.624V36H41.946V17.532H44.556C45.012 17.532 45.33 17.616 45.51 17.784C45.69 17.94 45.81 18.228 45.87 18.648L46.14 20.736ZM65.4481 28.116C64.1641 28.176 63.0841 28.29 62.2081 28.458C61.3321 28.614 60.6301 28.818 60.1021 29.07C59.5741 29.322 59.1961 29.616 58.9681 29.952C58.7401 30.288 58.6261 30.654 58.6261 31.05C58.6261 31.83 58.8541 32.388 59.3101 32.724C59.7781 33.06 60.3841 33.228 61.1281 33.228C62.0401 33.228 62.8261 33.066 63.4861 32.742C64.1581 32.406 64.8121 31.902 65.4481 31.23V28.116ZM55.2601 20.106C57.3841 18.162 59.9401 17.19 62.9281 17.19C64.0081 17.19 64.9741 17.37 65.8261 17.73C66.6781 18.078 67.3981 18.57 67.9861 19.206C68.5741 19.83 69.0181 20.58 69.3181 21.456C69.6301 22.332 69.7861 23.292 69.7861 24.336V36H67.7701C67.3501 36 67.0261 35.94 66.7981 35.82C66.5701 35.688 66.3901 35.43 66.2581 35.046L65.8621 33.714C65.3941 34.134 64.9381 34.506 64.4941 34.83C64.0501 35.142 63.5881 35.406 63.1081 35.622C62.6281 35.838 62.1121 36 61.5601 36.108C61.0201 36.228 60.4201 36.288 59.7601 36.288C58.9801 36.288 58.2601 36.186 57.6001 35.982C56.9401 35.766 56.3701 35.448 55.8901 35.028C55.4101 34.608 55.0381 34.086 54.7741 33.462C54.5101 32.838 54.3781 32.112 54.3781 31.284C54.3781 30.816 54.4561 30.354 54.6121 29.898C54.7681 29.43 55.0201 28.986 55.3681 28.566C55.7281 28.146 56.1901 27.75 56.7541 27.378C57.3181 27.006 58.0081 26.682 58.8241 26.406C59.6521 26.13 60.6121 25.908 61.7041 25.74C62.7961 25.56 64.0441 25.452 65.4481 25.416V24.336C65.4481 23.1 65.1841 22.188 64.6561 21.6C64.1281 21 63.3661 20.7 62.3701 20.7C61.6501 20.7 61.0501 20.784 60.5701 20.952C60.1021 21.12 59.6881 21.312 59.3281 21.528C58.9681 21.732 58.6381 21.918 58.3381 22.086C58.0501 22.254 57.7261 22.338 57.3661 22.338C57.0541 22.338 56.7901 22.26 56.5741 22.104C56.3581 21.936 56.1841 21.744 56.0521 21.528L55.2601 20.106Z" fill="#282A2D"/>
<path fill-rule="evenodd" clip-rule="evenodd" d="M75 35C76.6569 35 78 33.6569 78 32C78 30.3431 76.6569 29 75 29C73.3431 29 72 30.3431 72 32C72 33.6569 73.3431 35 75 35Z" fill="#FB9166"/>
</svg>
